<?xml version="1.0" encoding="UTF-8" standalone="no"?>
<!-- Created with Inkscape (http://www.inkscape.org/) -->

<svg
   width="300.20001mm"
   height="200.2mm"
   viewBox="0 0 300.20001 200.2"
   version="1.1"
   id="svg6130"
   inkscape:version="1.2.1 (9c6d41e410, 2022-07-14)"
   sodipodi:docname="Sega2PTop.svg"
   xmlns:inkscape="http://www.inkscape.org/namespaces/inkscape"
   xmlns:sodipodi="http://sodipodi.sourceforge.net/DTD/sodipodi-0.dtd"
   xmlns="http://www.w3.org/2000/svg"
   xmlns:svg="http://www.w3.org/2000/svg"
   xmlns:shaper="http://www.shapertools.com/namespaces/shaper">
  <sodipodi:namedview
     id="namedview6132"
     pagecolor="#ffffff"
     bordercolor="#000000"
     borderopacity="0.25"
     inkscape:showpageshadow="2"
     inkscape:pageopacity="0.0"
     inkscape:pagecheckerboard="0"
     inkscape:deskcolor="#d1d1d1"
     inkscape:document-units="mm"
     showgrid="false"
     inkscape:zoom="0.93806818"
     inkscape:cx="373.64022"
     inkscape:cy="378.43731"
     inkscape:window-width="2560"
     inkscape:window-height="1369"
     inkscape:window-x="-8"
     inkscape:window-y="-8"
     inkscape:window-maximized="1"
     inkscape:current-layer="layer1" />
  <defs
     id="defs6127" />
  <g
     inkscape:label="Layer 1"
     inkscape:groupmode="layer"
     id="layer1"
     transform="translate(45.17692,-48.4)">
    <g
       id="g865"
       transform="matrix(-10,0,0,-10,254.92308,248.5)"
       style="fill:none;stroke:#000000;stroke-width:0.02;stroke-miterlimit:4;stroke-dasharray:none;stroke-opacity:1">
      <path
         d="M 0,20 A 0.35,0.35 90 0 1 -0.35,19.65 V 0.35 A 0.35,0.35 -180 0 1 0,0 h 29.3 a 0.35,0.35 -90 0 1 0.35,0.35 v 19.3 A 0.35,0.35 0 0 1 29.3,20 Z"
         fill="#000000"
         shaper:cutDepth="0"
         stroke-linecap="round"
         stroke-linejoin="round"
         id="path2"
         transform="matrix(1,0,0,-1,0.35,20)"
         style="fill:none;stroke:#000000;stroke-width:0.02;stroke-miterlimit:4;stroke-dasharray:none;stroke-opacity:1" />
      <path
         d="m 6.5,4.1 a 1.5,1.5 0 1 1 3,0 1.5,1.5 0 1 1 -3,0 z"
         fill="#ffffff"
         stroke="#000000"
         stroke-width="0.001cm"
         stroke-linecap="round"
         stroke-linejoin="round"
         shaper:cutDepth="0"
         id="path4"
         transform="matrix(1,0,0,-1,0.35,20)"
         style="fill:none;stroke:#000000;stroke-width:0.02;stroke-miterlimit:4;stroke-dasharray:none;stroke-opacity:1" />
      <path
         d="m 13.15,6.1 a 1.5,1.5 0 1 1 3,0 1.5,1.5 0 1 1 -3,0 z"
         fill="#ffffff"
         stroke="#000000"
         stroke-width="0.001cm"
         stroke-linecap="round"
         stroke-linejoin="round"
         shaper:cutDepth="0"
         id="path6"
         transform="matrix(1,0,0,-1,0.35,20)"
         style="fill:none;stroke:#000000;stroke-width:0.02;stroke-miterlimit:4;stroke-dasharray:none;stroke-opacity:1" />
      <path
         d="m 10.1,8 a 1.5,1.5 0 1 1 3,0 1.5,1.5 0 1 1 -3,0 z"
         fill="#ffffff"
         stroke="#000000"
         stroke-width="0.001cm"
         stroke-linecap="round"
         stroke-linejoin="round"
         shaper:cutDepth="0"
         id="path8"
         transform="matrix(1,0,0,-1,0.35,20)"
         style="fill:none;stroke:#000000;stroke-width:0.02;stroke-miterlimit:4;stroke-dasharray:none;stroke-opacity:1" />
      <path
         d="m 6.5,8 a 1.5,1.5 0 1 1 3,0 1.5,1.5 0 1 1 -3,0 z"
         fill="#ffffff"
         stroke="#000000"
         stroke-width="0.001cm"
         stroke-linecap="round"
         stroke-linejoin="round"
         shaper:cutDepth="0"
         id="path10"
         transform="matrix(1,0,0,-1,0.35,20)"
         style="fill:none;stroke:#000000;stroke-width:0.02;stroke-miterlimit:4;stroke-dasharray:none;stroke-opacity:1" />
      <path
         d="m 2.95,5 a 1.5,1.5 0 1 1 3,0 1.5,1.5 0 1 1 -3,0 z"
         fill="#ffffff"
         stroke="#000000"
         stroke-width="0.001cm"
         stroke-linecap="round"
         stroke-linejoin="round"
         shaper:cutDepth="0"
         id="path12"
         transform="matrix(1,0,0,-1,0.35,20)"
         style="fill:none;stroke:#000000;stroke-width:0.02;stroke-miterlimit:4;stroke-dasharray:none;stroke-opacity:1" />
      <path
         d="m 13.15,10 a 1.5,1.5 0 1 1 3,0 1.5,1.5 0 1 1 -3,0 z"
         fill="#ffffff"
         stroke="#000000"
         stroke-width="0.001cm"
         stroke-linecap="round"
         stroke-linejoin="round"
         shaper:cutDepth="0"
         id="path14"
         transform="matrix(1,0,0,-1,0.35,20)"
         style="fill:none;stroke:#000000;stroke-width:0.02;stroke-miterlimit:4;stroke-dasharray:none;stroke-opacity:1" />
      <path
         d="m 10.1,4.1 a 1.5,1.5 0 1 1 3,0 1.5,1.5 0 1 1 -3,0 z"
         fill="#ffffff"
         stroke="#000000"
         stroke-width="0.001cm"
         stroke-linecap="round"
         stroke-linejoin="round"
         shaper:cutDepth="0"
         id="path16"
         transform="matrix(1,0,0,-1,0.35,20)"
         style="fill:none;stroke:#000000;stroke-width:0.02;stroke-miterlimit:4;stroke-dasharray:none;stroke-opacity:1" />
      <path
         d="m 20.4,8 a 1.2,1.2 0 1 1 2.4,0 1.2,1.2 0 1 1 -2.4,0 z"
         fill="#ffffff"
         stroke="#000000"
         stroke-width="0.001cm"
         stroke-linecap="round"
         stroke-linejoin="round"
         shaper:cutDepth="0"
         id="path18"
         transform="matrix(1,0,0,-1,0.35,20)"
         style="fill:none;stroke:#000000;stroke-width:0.02;stroke-miterlimit:4;stroke-dasharray:none;stroke-opacity:1" />
      <path
         d="m 2.95,8.9 a 1.5,1.5 0 1 1 3,0 1.5,1.5 0 1 1 -3,0 z"
         fill="#ffffff"
         stroke="#000000"
         stroke-width="0.001cm"
         stroke-linecap="round"
         stroke-linejoin="round"
         shaper:cutDepth="0"
         id="path20"
         transform="matrix(1,0,0,-1,0.35,20)"
         style="fill:none;stroke:#000000;stroke-width:0.02;stroke-miterlimit:4;stroke-dasharray:none;stroke-opacity:1" />
      <path
         d="m 1.1897778,1.4 a 0.21022222,0.21022223 0 1 0 0.4204444,0 0.21022222,0.21022223 0 1 0 -0.4204444,0 z"
         fill="#ffffff"
         stroke="#000000"
         stroke-width="0.001cm"
         stroke-linecap="round"
         stroke-linejoin="round"
         shaper:cutDepth="0"
         id="path22"
         style="fill:none;stroke:#000000;stroke-width:0.0195556;stroke-miterlimit:4;stroke-dasharray:none;stroke-opacity:1" />
      <path
         d="m 28.389778,1.4 a 0.21022222,0.21022222 0 1 0 0.420444,0 0.21022222,0.21022222 0 1 0 -0.420444,0 z"
         fill="#ffffff"
         stroke="#000000"
         stroke-width="0.001cm"
         stroke-linecap="round"
         stroke-linejoin="round"
         shaper:cutDepth="0"
         id="path24"
         style="fill:none;stroke:#000000;stroke-width:0.0195556;stroke-miterlimit:4;stroke-dasharray:none;stroke-opacity:1" />
      <path
         d="m 1.1897778,18.6 a 0.21022222,0.21022223 0 1 0 0.4204444,0 0.21022222,0.21022223 0 1 0 -0.4204444,0 z"
         fill="#ffffff"
         stroke="#000000"
         stroke-width="0.001cm"
         stroke-linecap="round"
         stroke-linejoin="round"
         shaper:cutDepth="0"
         id="path26"
         style="fill:none;stroke:#000000;stroke-width:0.0195556;stroke-miterlimit:4;stroke-dasharray:none;stroke-opacity:1" />
      <path
         d="m 28.389778,18.6 a 0.21022222,0.21022223 0 1 0 0.420444,0 0.21022222,0.21022223 0 1 0 -0.420444,0 z"
         fill="#ffffff"
         stroke="#000000"
         stroke-width="0.001cm"
         stroke-linecap="round"
         stroke-linejoin="round"
         shaper:cutDepth="0"
         id="path28"
         style="fill:none;stroke:#000000;stroke-width:0.0195556;stroke-miterlimit:4;stroke-dasharray:none;stroke-opacity:1" />
    </g>
  </g>
</svg>
