<?xml version="1.0" encoding="UTF-8" standalone="no"?>
<!-- Created with Inkscape (http://www.inkscape.org/) -->

<svg
   width="293.20001mm"
   height="193.2mm"
   viewBox="0 0 293.20001 193.2"
   version="1.1"
   id="svg5143"
   inkscape:version="1.2.1 (9c6d41e410, 2022-07-14)"
   sodipodi:docname="Sega2PMid.svg"
   xmlns:inkscape="http://www.inkscape.org/namespaces/inkscape"
   xmlns:sodipodi="http://sodipodi.sourceforge.net/DTD/sodipodi-0.dtd"
   xmlns="http://www.w3.org/2000/svg"
   xmlns:svg="http://www.w3.org/2000/svg">
  <sodipodi:namedview
     id="namedview5145"
     pagecolor="#ffffff"
     bordercolor="#000000"
     borderopacity="0.25"
     inkscape:showpageshadow="2"
     inkscape:pageopacity="0.0"
     inkscape:pagecheckerboard="0"
     inkscape:deskcolor="#d1d1d1"
     inkscape:document-units="mm"
     showgrid="false"
     inkscape:zoom="0.64693624"
     inkscape:cx="861.75417"
     inkscape:cy="573.47228"
     inkscape:window-width="2560"
     inkscape:window-height="1369"
     inkscape:window-x="-8"
     inkscape:window-y="-8"
     inkscape:window-maximized="1"
     inkscape:current-layer="g672" />
  <defs
     id="defs5140" />
  <g
     inkscape:label="Layer 1"
     inkscape:groupmode="layer"
     id="layer1"
     transform="translate(36.707108,-21.67946)">
    <g
       id="g672"
       transform="matrix(10,0,0,10,-42.023109,-219.97686)">
      <path
         d="m 17.348743,36.975632 a 0.157143,0.15714305 0 1 0 -0.314286,0 0.157143,0.15714305 0 1 0 0.314286,0 z"
         fill="rgb(255,255,255)"
         stroke="rgb(0,0,0)"
         stroke-width="0.0010cm"
         stroke-linecap="round"
         stroke-linejoin="round"
         id="path27994"
         style="fill:none;stroke:#000000;stroke-width:0.0157143;stroke-dasharray:none;stroke-opacity:1" />
      <path
         d="m 17.348743,40.575632 a 0.157143,0.15714305 0 1 0 -0.314286,0 0.157143,0.15714305 0 1 0 0.314286,0 z"
         fill="rgb(255,255,255)"
         stroke="rgb(0,0,0)"
         stroke-width="0.0010cm"
         stroke-linecap="round"
         stroke-linejoin="round"
         id="path27996"
         style="fill:none;stroke:#000000;stroke-width:0.0157143;stroke-dasharray:none;stroke-opacity:1" />
      <path
         d="m 26.148743,36.975632 a 0.157143,0.15714305 0 1 0 -0.314286,0 0.157143,0.15714305 0 1 0 0.314286,0 z"
         fill="rgb(255,255,255)"
         stroke="rgb(0,0,0)"
         stroke-width="0.0010cm"
         stroke-linecap="round"
         stroke-linejoin="round"
         id="path27998"
         style="fill:none;stroke:#000000;stroke-width:0.0157143;stroke-dasharray:none;stroke-opacity:1" />
      <path
         d="m 26.148743,40.575632 a 0.157143,0.15714305 0 1 0 -0.314286,0 0.157143,0.15714305 0 1 0 0.314286,0 z"
         fill="rgb(255,255,255)"
         stroke="rgb(0,0,0)"
         stroke-width="0.0010cm"
         stroke-linecap="round"
         stroke-linejoin="round"
         id="path28000"
         style="fill:none;stroke:#000000;stroke-width:0.0157143;stroke-dasharray:none;stroke-opacity:1" />
      <path
         d="m 10.4216,27.800632 a 0.18,0.18 0 1 0 -0.36,0 0.18,0.18 0 1 0 0.36,0 z"
         fill="rgb(255,255,255)"
         stroke="rgb(0,0,0)"
         stroke-width="0.0010cm"
         stroke-linecap="round"
         stroke-linejoin="round"
         id="path28002"
         style="fill:none;stroke:#000000;stroke-width:0.02;stroke-dasharray:none;stroke-opacity:1" />
      <path
         d="m 14.069103,31.975632 a 2.25,2.25 0 0 1 1.924814,-4.052091 2.25,2.25 0 0 1 4.047683,-1.247909 2.25,2.25 0 0 1 3.896297,0.532663 2.25,2.25 0 1 1 2.5762,3.667337 2.25,2.25 0 1 1 -3.16082,2.902754 2.5269053,2.5269053 0 0 1 -3.318873,-0.359547 2.7224516,2.7224516 0 0 1 -2.640915,0.969594 2.25,2.25 0 1 1 -3.324386,-2.412801 z"
         fill="rgb(255,255,255)"
         stroke="rgb(0,0,0)"
         stroke-width="0.0010cm"
         stroke-linecap="round"
         stroke-linejoin="round"
         id="path28004"
         style="fill:none;stroke:#000000;stroke-width:0.02;stroke-dasharray:none;stroke-opacity:1" />
      <path
         d="m 10.4216,36.050632 a 0.18,0.18 0 1 0 -0.36,0 0.18,0.18 0 1 0 0.36,0 z"
         fill="rgb(255,255,255)"
         stroke="rgb(0,0,0)"
         stroke-width="0.0010cm"
         stroke-linecap="round"
         stroke-linejoin="round"
         id="path28006"
         style="fill:none;stroke:#000000;stroke-width:0.02;stroke-dasharray:none;stroke-opacity:1" />
      <path
         d="m 6.4216003,27.800632 a 0.18,0.18 0 1 0 -0.36,0 0.18,0.18 0 1 0 0.36,0 z"
         fill="rgb(255,255,255)"
         stroke="rgb(0,0,0)"
         stroke-width="0.0010cm"
         stroke-linecap="round"
         stroke-linejoin="round"
         id="path28008"
         style="fill:none;stroke:#000000;stroke-width:0.02;stroke-dasharray:none;stroke-opacity:1" />
      <path
         d="m 10.2416,31.925632 a 2,2 0 1 0 -3.9999997,0 2,2 0 1 0 3.9999997,0 z"
         fill="rgb(255,255,255)"
         stroke="rgb(0,0,0)"
         stroke-width="0.0010cm"
         stroke-linecap="round"
         stroke-linejoin="round"
         id="path28010"
         style="fill:none;stroke:#000000;stroke-width:0.02;stroke-dasharray:none;stroke-opacity:1" />
      <path
         d="m 6.4216003,36.050632 a 0.18,0.18 0 1 0 -0.36,0 0.18,0.18 0 1 0 0.36,0 z"
         fill="rgb(255,255,255)"
         stroke="rgb(0,0,0)"
         stroke-width="0.0010cm"
         stroke-linecap="round"
         stroke-linejoin="round"
         id="path28012"
         style="fill:none;stroke:#000000;stroke-width:0.02;stroke-dasharray:none;stroke-opacity:1" />
      <g
         id="g6883"
         style="fill:none;stroke:#000000;stroke-width:0.02;stroke-dasharray:none;stroke-opacity:1"
         transform="translate(0.54160013,24.175632)">
        <path
           d="m -5.2079833,14.237015 h -5.7999997 v 0.635 h -3.6 c -0.303757,0 -0.55,-0.246243 -0.55,-0.55 v -3.6 h 0.635 v -5.5999996 -5.4 h -0.635 v -3.6 c 0,-0.3037566 0.246243,-0.55 0.55,-0.55 h 3.6 v 0.635 H 9.9920167 v -0.635 h 3.6000003 c 0.303757,0 0.55,0.2462434 0.55,0.55 v 3.6 h -0.635 v 5.4 5.5999996 h 0.635 v 3.6 c 0,0.303757 -0.246243,0.55 -0.55,0.55 H 9.9920167 v -0.635 h -5.8 z"
           transform="matrix(1,0,0,-1,15.157983,14.872015)"
           fill="rgb(0,0,0)"
           stroke-linecap="round"
           stroke-linejoin="round"
           id="path610"
           style="fill:none;stroke:#000000;stroke-width:0.02;stroke-dasharray:none;stroke-opacity:1"
           sodipodi:nodetypes="cccsscccccssccccsscccccsscccc" />
        <path
           d="m -0.7129833,-2.2779846 a 0.205,0.205 0 1 1 0.41,0 0.205,0.205 0 1 1 -0.41,0 z"
           transform="matrix(1,0,0,-1,15.157983,14.872015)"
           fill="rgb(255,255,255)"
           stroke="rgb(0,0,0)"
           stroke-width="0.0010cm"
           stroke-linecap="round"
           stroke-linejoin="round"
           id="path612"
           style="fill:none;stroke:#000000;stroke-width:0.02;stroke-dasharray:none;stroke-opacity:1" />
        <path
           d="m -0.7129833,12.722015 a 0.205,0.205 0 1 1 0.41,0 0.205,0.205 0 1 1 -0.41,0 z"
           transform="matrix(1,0,0,-1,15.157983,14.872015)"
           fill="rgb(255,255,255)"
           stroke="rgb(0,0,0)"
           stroke-width="0.0010cm"
           stroke-linecap="round"
           stroke-linejoin="round"
           id="path614"
           style="fill:none;stroke:#000000;stroke-width:0.02;stroke-dasharray:none;stroke-opacity:1" />
        <path
           d="m 12.882017,13.822016 a 0.21,0.21 0 1 1 0.42,0 0.21,0.21 0 1 1 -0.42,0 z"
           transform="matrix(1,0,0,-1,15.157983,14.872015)"
           fill="rgb(255,255,255)"
           stroke="rgb(0,0,0)"
           stroke-width="0.0010cm"
           stroke-linecap="round"
           stroke-linejoin="round"
           id="path618"
           style="fill:none;stroke:#000000;stroke-width:0.02;stroke-dasharray:none;stroke-opacity:1" />
        <path
           d="m 12.882017,-3.3779846 a 0.21,0.21 0 1 1 0.42,0 0.21,0.21 0 1 1 -0.42,0 z"
           transform="matrix(1,0,0,-1,15.157983,14.872015)"
           fill="rgb(255,255,255)"
           stroke="rgb(0,0,0)"
           stroke-width="0.0010cm"
           stroke-linecap="round"
           stroke-linejoin="round"
           id="path620"
           style="fill:none;stroke:#000000;stroke-width:0.02;stroke-dasharray:none;stroke-opacity:1" />
        <path
           d="m -14.317983,-3.3779846 a 0.21,0.21 0 1 1 0.42,0 0.21,0.21 0 1 1 -0.42,0 z"
           transform="matrix(1,0,0,-1,15.157983,14.872015)"
           fill="rgb(255,255,255)"
           stroke="rgb(0,0,0)"
           stroke-width="0.0010cm"
           stroke-linecap="round"
           stroke-linejoin="round"
           id="path622"
           style="fill:none;stroke:#000000;stroke-width:0.02;stroke-dasharray:none;stroke-opacity:1" />
        <path
           d="m -14.317983,13.822016 a 0.21,0.21 0 1 1 0.42,0 0.21,0.21 0 1 1 -0.42,0 z"
           transform="matrix(1,0,0,-1,15.157983,14.872015)"
           fill="rgb(255,255,255)"
           stroke="rgb(0,0,0)"
           stroke-width="0.0010cm"
           stroke-linecap="round"
           stroke-linejoin="round"
           id="path624"
           style="fill:none;stroke:#000000;stroke-width:0.02;stroke-dasharray:none;stroke-opacity:1" />
      </g>
    </g>
  </g>
</svg>
