<?xml version="1.0" encoding="UTF-8" standalone="no"?>
<!-- Created with Inkscape (http://www.inkscape.org/) -->

<svg
   width="300.20001mm"
   height="200.2mm"
   viewBox="0 0 300.20001 200.2"
   version="1.1"
   id="svg821"
   inkscape:version="1.2.1 (9c6d41e410, 2022-07-14)"
   sodipodi:docname="SticklessTop.svg"
   xmlns:inkscape="http://www.inkscape.org/namespaces/inkscape"
   xmlns:sodipodi="http://sodipodi.sourceforge.net/DTD/sodipodi-0.dtd"
   xmlns="http://www.w3.org/2000/svg"
   xmlns:svg="http://www.w3.org/2000/svg">
  <sodipodi:namedview
     id="namedview823"
     pagecolor="#ffffff"
     bordercolor="#000000"
     borderopacity="0.25"
     inkscape:showpageshadow="2"
     inkscape:pageopacity="0.0"
     inkscape:pagecheckerboard="0"
     inkscape:deskcolor="#d1d1d1"
     inkscape:document-units="mm"
     showgrid="false"
     inkscape:zoom="0.914906"
     inkscape:cx="397.85508"
     inkscape:cy="440.48241"
     inkscape:window-width="2560"
     inkscape:window-height="1369"
     inkscape:window-x="-8"
     inkscape:window-y="-8"
     inkscape:window-maximized="1"
     inkscape:current-layer="layer1" />
  <defs
     id="defs818" />
  <g
     inkscape:label="Layer 1"
     inkscape:groupmode="layer"
     id="layer1"
     transform="translate(47.7261,-31.77147)">
    <g
       id="g3845"
       transform="matrix(-10,0,0,-10,252.3739,231.87147)"
       style="fill:none;stroke:#000000;stroke-width:0.02;stroke-dasharray:none;stroke-opacity:1">
      <path
         d="M -14.65,12.5 A 0.35,0.35 90 0 1 -15,12.15 v -19.3 a 0.35,0.35 -180 0 1 0.35,-0.35 h 29.3 A 0.35,0.35 -90 0 1 15,-7.15 v 19.3 a 0.35,0.35 0 0 1 -0.35,0.35 z"
         transform="matrix(1,0,0,-1,15,12.5)"
         fill="#000000"
         stroke-linecap="round"
         stroke-linejoin="round"
         id="path884"
         style="fill:none;stroke:#000000;stroke-width:0.02;stroke-dasharray:none;stroke-opacity:1" />
      <path
         d="m -6.9,0.1 a 1.2,1.2 0 1 1 2.4,0 1.2,1.2 0 1 1 -2.4,0 z"
         transform="matrix(1,0,0,-1,15,12.5)"
         fill="#ffffff"
         stroke="#000000"
         stroke-width="0.001cm"
         stroke-linecap="round"
         stroke-linejoin="round"
         id="path886"
         style="fill:none;stroke:#000000;stroke-width:0.02;stroke-dasharray:none;stroke-opacity:1" />
      <path
         d="m -1.2,-1.5 a 1.2,1.2 0 1 1 2.4,0 1.2,1.2 0 1 1 -2.4,0 z"
         transform="matrix(1,0,0,-1,15,12.5)"
         fill="#ffffff"
         stroke="#000000"
         stroke-width="0.001cm"
         stroke-linecap="round"
         stroke-linejoin="round"
         id="path888"
         style="fill:none;stroke:#000000;stroke-width:0.02;stroke-dasharray:none;stroke-opacity:1" />
      <path
         d="m 3.9,-1.5 a 1.2,1.2 0 1 1 2.4,0 1.2,1.2 0 1 1 -2.4,0 z"
         transform="matrix(1,0,0,-1,15,12.5)"
         fill="#ffffff"
         stroke="#000000"
         stroke-width="0.001cm"
         stroke-linecap="round"
         stroke-linejoin="round"
         id="path890"
         style="fill:none;stroke:#000000;stroke-width:0.02;stroke-dasharray:none;stroke-opacity:1" />
      <path
         d="m 1.4,-0.1 a 1.2,1.2 0 1 1 2.4,0 1.2,1.2 0 1 1 -2.4,0 z"
         transform="matrix(1,0,0,-1,15,12.5)"
         fill="#ffffff"
         stroke="#000000"
         stroke-width="0.001cm"
         stroke-linecap="round"
         stroke-linejoin="round"
         id="path892"
         style="fill:none;stroke:#000000;stroke-width:0.02;stroke-dasharray:none;stroke-opacity:1" />
      <path
         d="m -3.9,-2.9 a 1.2,1.2 0 1 1 2.4,0 1.2,1.2 0 1 1 -2.4,0 z"
         transform="matrix(1,0,0,-1,15,12.5)"
         fill="#ffffff"
         stroke="#000000"
         stroke-width="0.001cm"
         stroke-linecap="round"
         stroke-linejoin="round"
         id="path894"
         style="fill:none;stroke:#000000;stroke-width:0.02;stroke-dasharray:none;stroke-opacity:1" />
      <path
         d="m -9.9,-2.2 a 1.2,1.2 0 1 1 2.4,0 1.2,1.2 0 1 1 -2.4,0 z"
         transform="matrix(1,0,0,-1,15,12.5)"
         fill="#ffffff"
         stroke="#000000"
         stroke-width="0.001cm"
         stroke-linecap="round"
         stroke-linejoin="round"
         id="path896"
         style="fill:none;stroke:#000000;stroke-width:0.02;stroke-dasharray:none;stroke-opacity:1" />
      <path
         d="m -6.9,-2.9 a 1.2,1.2 0 1 1 2.4,0 1.2,1.2 0 1 1 -2.4,0 z"
         transform="matrix(1,0,0,-1,15,12.5)"
         fill="#ffffff"
         stroke="#000000"
         stroke-width="0.001cm"
         stroke-linecap="round"
         stroke-linejoin="round"
         id="path898"
         style="fill:none;stroke:#000000;stroke-width:0.02;stroke-dasharray:none;stroke-opacity:1" />
      <path
         d="m -1.2,1.5 a 1.2,1.2 0 1 1 2.4,0 1.2,1.2 0 1 1 -2.4,0 z"
         transform="matrix(1,0,0,-1,15,12.5)"
         fill="#ffffff"
         stroke="#000000"
         stroke-width="0.001cm"
         stroke-linecap="round"
         stroke-linejoin="round"
         id="path900"
         style="fill:none;stroke:#000000;stroke-width:0.02;stroke-dasharray:none;stroke-opacity:1" />
      <path
         d="m 6.9,-1.5 a 1.2,1.2 0 1 1 2.4,0 1.2,1.2 0 1 1 -2.4,0 z"
         transform="matrix(1,0,0,-1,15,12.5)"
         fill="#ffffff"
         stroke="#000000"
         stroke-width="0.001cm"
         stroke-linecap="round"
         stroke-linejoin="round"
         id="path902"
         style="fill:none;stroke:#000000;stroke-width:0.02;stroke-dasharray:none;stroke-opacity:1" />
      <path
         d="m 0,4.9 a 1.5,1.5 0 1 1 3,0 1.5,1.5 0 1 1 -3,0 z"
         transform="matrix(1,0,0,-1,15,12.5)"
         fill="#ffffff"
         stroke="#000000"
         stroke-width="0.001cm"
         stroke-linecap="round"
         stroke-linejoin="round"
         id="path904"
         style="fill:none;stroke:#000000;stroke-width:0.02;stroke-dasharray:none;stroke-opacity:1" />
      <path
         d="m -3.9,0.1 a 1.2,1.2 0 1 1 2.4,0 1.2,1.2 0 1 1 -2.4,0 z"
         transform="matrix(1,0,0,-1,15,12.5)"
         fill="#ffffff"
         stroke="#000000"
         stroke-width="0.001cm"
         stroke-linecap="round"
         stroke-linejoin="round"
         id="path906"
         style="fill:none;stroke:#000000;stroke-width:0.02;stroke-dasharray:none;stroke-opacity:1" />
      <path
         d="m -9.9,0.8 a 1.2,1.2 0 1 1 2.4,0 1.2,1.2 0 1 1 -2.4,0 z"
         transform="matrix(1,0,0,-1,15,12.5)"
         fill="#ffffff"
         stroke="#000000"
         stroke-width="0.001cm"
         stroke-linecap="round"
         stroke-linejoin="round"
         id="path908"
         style="fill:none;stroke:#000000;stroke-width:0.02;stroke-dasharray:none;stroke-opacity:1" />
      <path
         d="m -13.805,11.1 a 0.205,0.205 0 1 1 0.41,0 0.205,0.205 0 1 1 -0.41,0 z"
         transform="matrix(1,0,0,-1,15,12.5)"
         fill="#ffffff"
         stroke="#000000"
         stroke-width="0.001cm"
         stroke-linecap="round"
         stroke-linejoin="round"
         id="path910"
         style="fill:none;stroke:#000000;stroke-width:0.02;stroke-dasharray:none;stroke-opacity:1" />
      <path
         d="m 13.395,11.1 a 0.205,0.205 0 1 1 0.41,0 0.205,0.205 0 1 1 -0.41,0 z"
         transform="matrix(1,0,0,-1,15,12.5)"
         fill="#ffffff"
         stroke="#000000"
         stroke-width="0.001cm"
         stroke-linecap="round"
         stroke-linejoin="round"
         id="path912"
         style="fill:none;stroke:#000000;stroke-width:0.02;stroke-dasharray:none;stroke-opacity:1" />
      <path
         d="m -13.805,-6.1 a 0.205,0.205 0 1 1 0.41,0 0.205,0.205 0 1 1 -0.41,0 z"
         transform="matrix(1,0,0,-1,15,12.5)"
         fill="#ffffff"
         stroke="#000000"
         stroke-width="0.001cm"
         stroke-linecap="round"
         stroke-linejoin="round"
         id="path914"
         style="fill:none;stroke:#000000;stroke-width:0.02;stroke-dasharray:none;stroke-opacity:1" />
      <path
         d="m 13.395,-6.1 a 0.205,0.205 0 1 1 0.41,0 0.205,0.205 0 1 1 -0.41,0 z"
         transform="matrix(1,0,0,-1,15,12.5)"
         fill="#ffffff"
         stroke="#000000"
         stroke-width="0.001cm"
         stroke-linecap="round"
         stroke-linejoin="round"
         id="path916"
         style="fill:none;stroke:#000000;stroke-width:0.02;stroke-dasharray:none;stroke-opacity:1" />
    </g>
  </g>
</svg>
