<?xml version="1.0" encoding="UTF-8" standalone="no"?>
<!-- Created with Inkscape (http://www.inkscape.org/) -->

<svg
   width="254.2mm"
   height="39.887501mm"
   viewBox="0 0 254.2 39.887501"
   version="1.1"
   id="svg2421"
   inkscape:version="1.2.1 (9c6d41e410, 2022-07-14)"
   sodipodi:docname="ThinBackPanel.svg"
   xmlns:inkscape="http://www.inkscape.org/namespaces/inkscape"
   xmlns:sodipodi="http://sodipodi.sourceforge.net/DTD/sodipodi-0.dtd"
   xmlns="http://www.w3.org/2000/svg"
   xmlns:svg="http://www.w3.org/2000/svg">
  <sodipodi:namedview
     id="namedview2423"
     pagecolor="#ffffff"
     bordercolor="#000000"
     borderopacity="0.25"
     inkscape:showpageshadow="2"
     inkscape:pageopacity="0.0"
     inkscape:pagecheckerboard="0"
     inkscape:deskcolor="#d1d1d1"
     inkscape:document-units="mm"
     showgrid="false"
     inkscape:zoom="1.829812"
     inkscape:cx="623.01482"
     inkscape:cy="153.02118"
     inkscape:window-width="2560"
     inkscape:window-height="1369"
     inkscape:window-x="-8"
     inkscape:window-y="-8"
     inkscape:window-maximized="1"
     inkscape:current-layer="g7333" />
  <defs
     id="defs2418" />
  <g
     inkscape:label="Layer 1"
     inkscape:groupmode="layer"
     id="layer1"
     transform="translate(-2.16874,-129.85762)">
    <g
       id="g2073"
       transform="matrix(10,0,0,10,2.26874,129.95762)">
      <g
         id="g7333"
         transform="rotate(180,12.7,1.984375)"
         style="fill:none;fill-opacity:1;stroke:#000000;stroke-width:0.02;stroke-dasharray:none;stroke-opacity:1">
        <path
           d="m -12.7,-1.299375 h 2.225 v -0.685 h 20.95 v 0.685 H 12.7 v 3.28375 h -25.4 z"
           transform="matrix(1,0,0,-1,12.7,1.984375)"
           fill="#000000"
           stroke-linecap="round"
           stroke-linejoin="round"
           id="path2"
           style="fill:none;fill-opacity:1;stroke:#000000;stroke-width:0.02;stroke-dasharray:none;stroke-opacity:1" />
        <path
           d="m 2.4897778,2.85935 a 0.21022225,0.21022234 0 1 0 0.4204445,0 0.21022225,0.21022234 0 1 0 -0.4204445,0 z"
           fill="#ffffff"
           stroke="#000000"
           stroke-width="0.001cm"
           stroke-linecap="round"
           stroke-linejoin="round"
           id="path4"
           style="fill:none;fill-opacity:1;stroke:#000000;stroke-width:0.0195556;stroke-dasharray:none;stroke-opacity:1" />
        <path
           d="m 2.4897778,1.10935 a 0.21022225,0.21022234 0 1 0 0.4204445,0 0.21022225,0.21022234 0 1 0 -0.4204445,0 z"
           fill="#ffffff"
           stroke="#000000"
           stroke-width="0.001cm"
           stroke-linecap="round"
           stroke-linejoin="round"
           id="path6"
           style="fill:none;fill-opacity:1;stroke:#000000;stroke-width:0.0195556;stroke-dasharray:none;stroke-opacity:1" />
        <path
           d="m 22.489778,2.85935 a 0.21022222,0.2102223 0 1 0 0.420444,0 0.21022222,0.2102223 0 1 0 -0.420444,0 z"
           fill="#ffffff"
           stroke="#000000"
           stroke-width="0.001cm"
           stroke-linecap="round"
           stroke-linejoin="round"
           id="path8"
           style="fill:none;fill-opacity:1;stroke:#000000;stroke-width:0.0195556;stroke-dasharray:none;stroke-opacity:1" />
        <path
           d="m 22.489778,1.10935 a 0.21022222,0.2102223 0 1 0 0.420444,0 0.21022222,0.2102223 0 1 0 -0.420444,0 z"
           fill="#ffffff"
           stroke="#000000"
           stroke-width="0.001cm"
           stroke-linecap="round"
           stroke-linejoin="round"
           id="path10"
           style="fill:none;fill-opacity:1;stroke:#000000;stroke-width:0.0195556;stroke-dasharray:none;stroke-opacity:1" />
      </g>
      <g
         id="g4092"
         transform="matrix(-0.98782898,0,0,0.98782898,25.358056,0.28873521)">
        <g
           id="g7653"
           transform="matrix(-1,0,0,1,25.854818,0)"
           style="fill:#ff0000;fill-opacity:1;stroke:none;stroke-width:0.02;stroke-miterlimit:4;stroke-dasharray:none;stroke-opacity:1">
          <g
             aria-label="CD-03 Weapons platform &quot;little vicar&quot; MKII"
             id="text2487"
             style="font-size:0.680489px;line-height:1.25;font-family:'Dress Code';-inkscape-font-specification:'Dress Code';text-align:center;text-anchor:middle;fill:#ff0000;fill-opacity:1;stroke:none;stroke-width:0.02;stroke-miterlimit:4;stroke-dasharray:none;stroke-opacity:1">
            <path
               d="m 10.29032,1.8033649 q -0.07009,0 -0.127932,-0.032663 -0.05716,-0.032663 -0.09051,-0.088464 -0.03334,-0.056481 -0.03334,-0.1231686 0,-0.066688 0.03334,-0.122488 0.03334,-0.056481 0.09051,-0.089144 0.05784,-0.032663 0.127932,-0.032663 0.126571,0 0.200064,0.094588 l -0.08914,0.07009 q -0.02041,-0.026539 -0.04695,-0.038788 -0.02654,-0.012249 -0.06397,-0.012249 -0.03879,0 -0.07077,0.017693 -0.0313,0.017012 -0.04968,0.046954 -0.01769,0.029941 -0.01769,0.066007 0,0.036066 0.01769,0.066007 0.01837,0.029942 0.04968,0.047634 0.03198,0.017012 0.07077,0.017012 0.03743,0 0.06397,-0.012249 0.02654,-0.012249 0.04695,-0.038788 l 0.08914,0.07009 q -0.07349,0.094588 -0.200064,0.094588 z"
               id="path7680"
               style="fill:#ff0000;fill-opacity:1;stroke:none;stroke-width:0.02;stroke-miterlimit:4;stroke-dasharray:none;stroke-opacity:1" />
            <path
               d="m 10.565237,1.3195372 h 0.210272 q 0.06737,0.00136 0.121807,0.033344 0.05512,0.031303 0.08642,0.085742 0.0313,0.053759 0.0313,0.1204465 0,0.066688 -0.0313,0.1211271 -0.0313,0.053759 -0.08642,0.085742 -0.05444,0.031303 -0.121807,0.032663 h -0.210272 z m 0.204828,0.3647421 q 0.03811,0 0.06737,-0.015651 0.02994,-0.016332 0.04627,-0.044912 0.01701,-0.028581 0.01701,-0.064647 0,-0.036066 -0.01701,-0.064646 -0.01633,-0.02858 -0.04627,-0.044232 -0.02926,-0.016332 -0.06737,-0.016332 h -0.09051 v 0.2504199 z"
               id="path7682"
               style="fill:#ff0000;fill-opacity:1;stroke:none;stroke-width:0.02;stroke-miterlimit:4;stroke-dasharray:none;stroke-opacity:1" />
            <path
               d="m 11.096699,1.5019083 h 0.289208 v 0.1143221 h -0.289208 z"
               id="path7684"
               style="fill:#ff0000;fill-opacity:1;stroke:none;stroke-width:0.02;stroke-miterlimit:4;stroke-dasharray:none;stroke-opacity:1" />
            <path
               d="m 11.656742,1.8033649 q -0.05444,0 -0.09935,-0.032663 -0.04491,-0.032663 -0.07077,-0.088464 -0.02586,-0.056481 -0.02586,-0.1231686 0,-0.066688 0.02586,-0.122488 0.02586,-0.056481 0.07077,-0.089144 0.04491,-0.032663 0.09935,-0.032663 0.05376,0 0.09867,0.033344 0.04491,0.032663 0.07077,0.088464 0.02586,0.0558 0.02586,0.122488 0,0.066688 -0.02586,0.1224881 -0.02586,0.0558 -0.07077,0.089144 -0.04491,0.032663 -0.09867,0.032663 z m 0,-0.1143222 q 0.0211,0 0.03947,-0.017693 0.01905,-0.017693 0.02994,-0.047634 0.01157,-0.029942 0.01157,-0.064647 0,-0.034705 -0.01157,-0.064646 -0.01089,-0.029942 -0.02994,-0.047634 -0.01837,-0.017693 -0.03947,-0.017693 -0.02109,0 -0.04015,0.017693 -0.01905,0.017012 -0.03062,0.046954 -0.01089,0.029942 -0.01089,0.065327 0,0.035386 0.01089,0.065327 0.01157,0.029942 0.03062,0.047634 0.01905,0.017012 0.04015,0.017012 z"
               id="path7686"
               style="fill:#ff0000;fill-opacity:1;stroke:none;stroke-width:0.02;stroke-miterlimit:4;stroke-dasharray:none;stroke-opacity:1" />
            <path
               d="m 12.105184,1.8033649 q -0.06533,0 -0.1116,-0.023137 -0.04559,-0.023817 -0.06669,-0.068049 l 0.102753,-0.049676 q 0.0054,0.012249 0.0245,0.019734 0.01905,0.00749 0.05104,0.00749 0.04015,0 0.05852,-0.012249 0.01837,-0.012929 0.01837,-0.039468 0,-0.036746 -0.04695,-0.036746 h -0.05648 V 1.487618 h 0.01429 q 0.01973,0 0.0347,-0.00953 0.01497,-0.00953 0.01497,-0.022456 0,-0.01429 -0.01089,-0.022456 -0.01089,-0.00885 -0.03402,-0.00885 -0.0347,0 -0.04627,0.024498 L 11.949354,1.396426 q 0.01973,-0.038788 0.05852,-0.059883 0.03879,-0.021776 0.09051,-0.021776 0.04695,0 0.08234,0.017693 0.03607,0.017693 0.0558,0.049676 0.01973,0.031983 0.01973,0.073493 0,0.035385 -0.01633,0.065327 0.02654,0.020415 0.04083,0.051037 0.01497,0.029942 0.01497,0.066007 0,0.048995 -0.02382,0.086422 -0.02314,0.037427 -0.06669,0.058522 -0.04287,0.020415 -0.100032,0.020415 z"
               id="path7688"
               style="fill:#ff0000;fill-opacity:1;stroke:none;stroke-width:0.02;stroke-miterlimit:4;stroke-dasharray:none;stroke-opacity:1" />
            <path
               d="m 12.622355,1.3195372 h 0.120447 l 0.115002,0.3069006 0.09663,-0.3069006 h 0.08574 l 0.09663,0.3069006 0.115003,-0.3069006 h 0.120446 l -0.178288,0.4790643 h -0.121808 l -0.07485,-0.2374907 -0.07485,0.2374907 h -0.121808 z"
               id="path7690"
               style="fill:#ff0000;fill-opacity:1;stroke:none;stroke-width:0.02;stroke-miterlimit:4;stroke-dasharray:none;stroke-opacity:1" />
            <path
               d="m 13.433498,1.3195372 h 0.363381 v 0.1143222 h -0.24974 v 0.068049 h 0.170122 v 0.1143221 h -0.170122 v 0.068049 h 0.24974 v 0.1143222 h -0.363381 z"
               id="path7692"
               style="fill:#ff0000;fill-opacity:1;stroke:none;stroke-width:0.02;stroke-miterlimit:4;stroke-dasharray:none;stroke-opacity:1" />
            <path
               d="m 14.028925,1.3195372 h 0.121807 l 0.177608,0.4790643 h -0.120447 l -0.04015,-0.1075173 h -0.155832 l -0.04015,0.1075173 h -0.120447 z m 0.09595,0.2572249 -0.03471,-0.093908 -0.03539,0.093908 z"
               id="path7694"
               style="fill:#ff0000;fill-opacity:1;stroke:none;stroke-width:0.02;stroke-miterlimit:4;stroke-dasharray:none;stroke-opacity:1" />
            <path
               d="m 14.389584,1.3195372 h 0.217756 q 0.05308,0.00136 0.09459,0.024498 0.04151,0.023137 0.06465,0.063286 0.02382,0.040149 0.02382,0.090505 0,0.050356 -0.02382,0.090505 -0.02314,0.040149 -0.06465,0.063966 -0.04151,0.023137 -0.09459,0.024498 h -0.104115 v 0.1218076 h -0.113641 z m 0.212312,0.2436151 q 0.03539,0 0.05512,-0.017012 0.01973,-0.017693 0.01973,-0.048315 0,-0.029941 -0.01973,-0.046954 -0.01973,-0.017012 -0.05512,-0.017012 h -0.09867 v 0.1292929 z"
               id="path7696"
               style="fill:#ff0000;fill-opacity:1;stroke:none;stroke-width:0.02;stroke-miterlimit:4;stroke-dasharray:none;stroke-opacity:1" />
            <path
               d="m 15.092529,1.8033649 q -0.06941,0 -0.127251,-0.032663 -0.05716,-0.032663 -0.09051,-0.088464 -0.03334,-0.056481 -0.03334,-0.1231686 0,-0.066688 0.03334,-0.122488 0.03334,-0.056481 0.09051,-0.089144 0.05784,-0.032663 0.127251,-0.032663 0.06941,0 0.126571,0.032663 0.05784,0.032663 0.09119,0.089144 0.03334,0.0558 0.03334,0.122488 0,0.066688 -0.03334,0.1231686 -0.03334,0.0558 -0.09119,0.088464 -0.05716,0.032663 -0.126571,0.032663 z m 0,-0.1136417 q 0.03879,0 0.07009,-0.017012 0.0313,-0.017693 0.049,-0.047634 0.01837,-0.030622 0.01837,-0.066007 0,-0.035385 -0.01837,-0.065327 -0.01769,-0.030622 -0.049,-0.047634 -0.0313,-0.017693 -0.07009,-0.017693 -0.03879,0 -0.07009,0.017693 -0.0313,0.017012 -0.04968,0.047634 -0.01769,0.029942 -0.01769,0.065327 0,0.035386 0.01769,0.066007 0.01837,0.029942 0.04968,0.047634 0.0313,0.017012 0.07009,0.017012 z"
               id="path7698"
               style="fill:#ff0000;fill-opacity:1;stroke:none;stroke-width:0.02;stroke-miterlimit:4;stroke-dasharray:none;stroke-opacity:1" />
            <path
               d="m 15.411677,1.3195372 h 0.113642 l 0.20823,0.2851249 V 1.3195372 h 0.113641 v 0.4790643 h -0.113641 l -0.20823,-0.2864859 v 0.2864859 h -0.113642 z"
               id="path7700"
               style="fill:#ff0000;fill-opacity:1;stroke:none;stroke-width:0.02;stroke-miterlimit:4;stroke-dasharray:none;stroke-opacity:1" />
            <path
               d="m 16.111901,1.8033649 q -0.146305,0 -0.189857,-0.1047953 l 0.108198,-0.037427 q 0.0048,0.012929 0.02518,0.021095 0.02109,0.00749 0.05648,0.00749 0.04355,0 0.06397,-0.00885 0.02041,-0.00885 0.02041,-0.024498 0,-0.011568 -0.0061,-0.017693 -0.0061,-0.00612 -0.0245,-0.010888 -0.01837,-0.00544 -0.06192,-0.01429 -0.09119,-0.017693 -0.132695,-0.051717 -0.04151,-0.034024 -0.04151,-0.095949 0,-0.043551 0.02314,-0.077576 0.02382,-0.034705 0.06533,-0.053759 0.04151,-0.019734 0.09391,-0.019734 0.06533,0 0.11092,0.0279 0.04559,0.0279 0.06261,0.076895 l -0.107518,0.037427 q -0.0041,-0.01361 -0.02109,-0.021095 -0.01633,-0.00817 -0.04423,-0.00817 -0.03334,0 -0.05308,0.010888 -0.01905,0.010207 -0.01565,0.025859 0.0014,0.00749 0.0075,0.012929 0.0061,0.00544 0.02382,0.011568 0.01837,0.00612 0.05376,0.012929 0.06397,0.012249 0.103434,0.030622 0.03947,0.018373 0.05852,0.047634 0.01974,0.029261 0.01974,0.074173 0,0.046273 -0.0245,0.079617 -0.0245,0.033344 -0.06941,0.051717 -0.04491,0.017693 -0.104795,0.017693 z"
               id="path7702"
               style="fill:#ff0000;fill-opacity:1;stroke:none;stroke-width:0.02;stroke-miterlimit:4;stroke-dasharray:none;stroke-opacity:1" />
            <path
               d="m 16.671262,1.3195372 h 0.217757 q 0.05308,0.00136 0.09459,0.024498 0.04151,0.023137 0.06465,0.063286 0.02382,0.040149 0.02382,0.090505 0,0.050356 -0.02382,0.090505 -0.02314,0.040149 -0.06465,0.063966 -0.04151,0.023137 -0.09459,0.024498 h -0.104115 v 0.1218076 h -0.113642 z m 0.212313,0.2436151 q 0.03538,0 0.05512,-0.017012 0.01973,-0.017693 0.01973,-0.048315 0,-0.029941 -0.01973,-0.046954 -0.01974,-0.017012 -0.05512,-0.017012 h -0.09867 v 0.1292929 z"
               id="path7704"
               style="fill:#ff0000;fill-opacity:1;stroke:none;stroke-width:0.02;stroke-miterlimit:4;stroke-dasharray:none;stroke-opacity:1" />
            <path
               d="m 17.146924,1.3195372 h 0.113641 v 0.3647421 h 0.24974 v 0.1143222 h -0.363381 z"
               id="path7706"
               style="fill:#ff0000;fill-opacity:1;stroke:none;stroke-width:0.02;stroke-miterlimit:4;stroke-dasharray:none;stroke-opacity:1" />
            <path
               d="m 17.735546,1.3195372 h 0.121808 l 0.177607,0.4790643 h -0.120446 l -0.04015,-0.1075173 h -0.155832 l -0.04015,0.1075173 h -0.120447 z m 0.09595,0.2572249 -0.0347,-0.093908 -0.03539,0.093908 z"
               id="path7708"
               style="fill:#ff0000;fill-opacity:1;stroke:none;stroke-width:0.02;stroke-miterlimit:4;stroke-dasharray:none;stroke-opacity:1" />
            <path
               d="M 18.156768,1.4338594 H 18.021351 V 1.3195372 h 0.385157 v 0.1143222 h -0.135417 v 0.3647421 h -0.114323 z"
               id="path7710"
               style="fill:#ff0000;fill-opacity:1;stroke:none;stroke-width:0.02;stroke-miterlimit:4;stroke-dasharray:none;stroke-opacity:1" />
            <path
               d="m 18.474557,1.3195372 h 0.363381 v 0.1143222 h -0.249739 v 0.068049 h 0.170122 v 0.1143221 h -0.170122 v 0.1823711 h -0.113642 z"
               id="path7712"
               style="fill:#ff0000;fill-opacity:1;stroke:none;stroke-width:0.02;stroke-miterlimit:4;stroke-dasharray:none;stroke-opacity:1" />
            <path
               d="m 19.123063,1.8033649 q -0.06941,0 -0.127251,-0.032663 -0.05716,-0.032663 -0.09051,-0.088464 -0.03334,-0.056481 -0.03334,-0.1231686 0,-0.066688 0.03334,-0.122488 0.03334,-0.056481 0.09051,-0.089144 0.05784,-0.032663 0.127251,-0.032663 0.06941,0 0.126571,0.032663 0.05784,0.032663 0.09119,0.089144 0.03334,0.0558 0.03334,0.122488 0,0.066688 -0.03334,0.1231686 -0.03334,0.0558 -0.09119,0.088464 -0.05716,0.032663 -0.126571,0.032663 z m 0,-0.1136417 q 0.03879,0 0.07009,-0.017012 0.0313,-0.017693 0.049,-0.047634 0.01837,-0.030622 0.01837,-0.066007 0,-0.035385 -0.01837,-0.065327 -0.01769,-0.030622 -0.049,-0.047634 -0.0313,-0.017693 -0.07009,-0.017693 -0.03879,0 -0.07009,0.017693 -0.0313,0.017012 -0.04968,0.047634 -0.01769,0.029942 -0.01769,0.065327 0,0.035386 0.01769,0.066007 0.01837,0.029942 0.04968,0.047634 0.0313,0.017012 0.07009,0.017012 z"
               id="path7714"
               style="fill:#ff0000;fill-opacity:1;stroke:none;stroke-width:0.02;stroke-miterlimit:4;stroke-dasharray:none;stroke-opacity:1" />
            <path
               d="m 19.442211,1.3195372 h 0.25042 q 0.04695,0 0.08438,0.020415 0.03811,0.019734 0.0592,0.05512 0.0211,0.035385 0.0211,0.080298 0,0.049676 -0.02654,0.087783 -0.02654,0.038107 -0.07213,0.0558 l 0.104114,0.1796491 h -0.131334 l -0.09731,-0.1680808 h -0.07826 v 0.1680808 h -0.113642 z m 0.24974,0.1966613 q 0.02518,0 0.03811,-0.010207 0.01361,-0.010888 0.01361,-0.030622 0,-0.019734 -0.01361,-0.030622 -0.01293,-0.010888 -0.03811,-0.010888 h -0.136098 v 0.082339 z"
               id="path7716"
               style="fill:#ff0000;fill-opacity:1;stroke:none;stroke-width:0.02;stroke-miterlimit:4;stroke-dasharray:none;stroke-opacity:1" />
            <path
               d="m 19.944411,1.3195372 h 0.114323 l 0.166039,0.2994152 0.165359,-0.2994152 h 0.114322 V 1.7986015 H 20.390132 V 1.5556669 L 20.2901,1.7373575 H 20.158765 L 20.058734,1.5556669 v 0.2429346 h -0.114323 z"
               id="path7718"
               style="fill:#ff0000;fill-opacity:1;stroke:none;stroke-width:0.02;stroke-miterlimit:4;stroke-dasharray:none;stroke-opacity:1" />
            <path
               d="m 11.576103,2.1640241 h 0.08642 l -0.04287,0.1905369 h -0.04355 z m 0.102074,0 h 0.08642 l -0.04287,0.1905369 h -0.04355 z"
               id="path7720"
               style="fill:#ff0000;fill-opacity:1;stroke:none;stroke-width:0.02;stroke-miterlimit:4;stroke-dasharray:none;stroke-opacity:1" />
            <path
               d="m 11.839452,2.1701485 h 0.113642 v 0.3647421 h 0.249739 v 0.1143221 h -0.363381 z"
               id="path7722"
               style="fill:#ff0000;fill-opacity:1;stroke:none;stroke-width:0.02;stroke-miterlimit:4;stroke-dasharray:none;stroke-opacity:1" />
            <path
               d="m 12.284491,2.1701485 h 0.114322 v 0.4790642 h -0.114322 z"
               id="path7724"
               style="fill:#ff0000;fill-opacity:1;stroke:none;stroke-width:0.02;stroke-miterlimit:4;stroke-dasharray:none;stroke-opacity:1" />
            <path
               d="M 12.609084,2.2844706 H 12.473666 V 2.1701485 h 0.385157 v 0.1143221 h -0.135417 v 0.3647421 h -0.114322 z"
               id="path7726"
               style="fill:#ff0000;fill-opacity:1;stroke:none;stroke-width:0.02;stroke-miterlimit:4;stroke-dasharray:none;stroke-opacity:1" />
            <path
               d="M 13.04868,2.2844706 H 12.913262 V 2.1701485 h 0.385157 V 2.2844706 H 13.163002 V 2.6492127 H 13.04868 Z"
               id="path7728"
               style="fill:#ff0000;fill-opacity:1;stroke:none;stroke-width:0.02;stroke-miterlimit:4;stroke-dasharray:none;stroke-opacity:1" />
            <path
               d="m 13.366468,2.1701485 h 0.113641 v 0.3647421 h 0.24974 v 0.1143221 h -0.363381 z"
               id="path7730"
               style="fill:#ff0000;fill-opacity:1;stroke:none;stroke-width:0.02;stroke-miterlimit:4;stroke-dasharray:none;stroke-opacity:1" />
            <path
               d="m 13.804702,2.1701485 h 0.363381 v 0.1143221 h -0.249739 v 0.068049 h 0.170122 v 0.1143222 h -0.170122 v 0.068049 h 0.249739 v 0.1143221 h -0.363381 z"
               id="path7732"
               style="fill:#ff0000;fill-opacity:1;stroke:none;stroke-width:0.02;stroke-miterlimit:4;stroke-dasharray:none;stroke-opacity:1" />
            <path
               d="m 14.515132,2.1701485 h 0.120447 l 0.118405,0.3157469 0.117724,-0.3157469 h 0.120447 L 14.814547,2.6492127 H 14.69274 Z"
               id="path7734"
               style="fill:#ff0000;fill-opacity:1;stroke:none;stroke-width:0.02;stroke-miterlimit:4;stroke-dasharray:none;stroke-opacity:1" />
            <path
               d="m 15.060204,2.1701485 h 0.114322 v 0.4790642 h -0.114322 z"
               id="path7736"
               style="fill:#ff0000;fill-opacity:1;stroke:none;stroke-width:0.02;stroke-miterlimit:4;stroke-dasharray:none;stroke-opacity:1" />
            <path
               d="m 15.50116,2.6539762 q -0.07009,0 -0.127932,-0.032663 -0.05716,-0.032663 -0.0905,-0.088464 -0.03334,-0.056481 -0.03334,-0.1231685 0,-0.066688 0.03334,-0.122488 0.03334,-0.056481 0.0905,-0.089144 0.05784,-0.032663 0.127932,-0.032663 0.126571,0 0.200063,0.094588 l -0.08914,0.07009 q -0.02041,-0.026539 -0.04695,-0.038788 -0.02654,-0.012249 -0.06397,-0.012249 -0.03879,0 -0.07077,0.017693 -0.0313,0.017012 -0.04968,0.046954 -0.01769,0.029942 -0.01769,0.066007 0,0.036066 0.01769,0.066007 0.01837,0.029942 0.04968,0.047634 0.03198,0.017012 0.07077,0.017012 0.03743,0 0.06397,-0.012249 0.02654,-0.012249 0.04695,-0.038788 l 0.08914,0.07009 q -0.07349,0.094588 -0.200063,0.094588 z"
               id="path7738"
               style="fill:#ff0000;fill-opacity:1;stroke:none;stroke-width:0.02;stroke-miterlimit:4;stroke-dasharray:none;stroke-opacity:1" />
            <path
               d="m 15.91966,2.1701485 h 0.121807 l 0.177608,0.4790642 h -0.120447 l -0.04015,-0.1075172 h -0.155832 l -0.04015,0.1075172 h -0.120447 z m 0.09595,0.2572248 -0.03471,-0.093908 -0.03539,0.093908 z"
               id="path7740"
               style="fill:#ff0000;fill-opacity:1;stroke:none;stroke-width:0.02;stroke-miterlimit:4;stroke-dasharray:none;stroke-opacity:1" />
            <path
               d="m 16.280319,2.1701485 h 0.25042 q 0.04695,0 0.08438,0.020415 0.03811,0.019734 0.0592,0.05512 0.02109,0.035385 0.02109,0.080298 0,0.049676 -0.02654,0.087783 -0.02654,0.038107 -0.07213,0.0558 l 0.104115,0.1796491 H 16.56952 L 16.47221,2.4811328 h -0.07826 v 0.1680808 h -0.113642 z m 0.249739,0.1966613 q 0.02518,0 0.03811,-0.010207 0.01361,-0.010888 0.01361,-0.030622 0,-0.019734 -0.01361,-0.030622 -0.01293,-0.010888 -0.03811,-0.010888 h -0.136097 v 0.082339 z"
               id="path7742"
               style="fill:#ff0000;fill-opacity:1;stroke:none;stroke-width:0.02;stroke-miterlimit:4;stroke-dasharray:none;stroke-opacity:1" />
            <path
               d="m 16.796129,2.1640241 h 0.08642 L 16.83968,2.354561 h -0.04355 z m 0.102073,0 h 0.08642 l -0.04287,0.1905369 h -0.04355 z"
               id="path7744"
               style="fill:#ff0000;fill-opacity:1;stroke:none;stroke-width:0.02;stroke-miterlimit:4;stroke-dasharray:none;stroke-opacity:1" />
            <path
               d="m 17.331673,2.1701485 h 0.114322 l 0.166039,0.2994151 0.165359,-0.2994151 h 0.114322 V 2.6492127 H 17.777393 V 2.4062782 L 17.677361,2.5879687 H 17.546027 L 17.445995,2.4062782 v 0.2429345 h -0.114322 z"
               id="path7746"
               style="fill:#ff0000;fill-opacity:1;stroke:none;stroke-width:0.02;stroke-miterlimit:4;stroke-dasharray:none;stroke-opacity:1" />
            <path
               d="m 17.993788,2.1701485 h 0.113642 v 0.182371 h 0.02858 l 0.149027,-0.182371 h 0.146985 l -0.19598,0.2395321 0.19598,0.2395321 H 18.285717 L 18.13601,2.4668417 h -0.02858 v 0.182371 h -0.113642 z"
               id="path7748"
               style="fill:#ff0000;fill-opacity:1;stroke:none;stroke-width:0.02;stroke-miterlimit:4;stroke-dasharray:none;stroke-opacity:1" />
            <path
               d="m 18.520487,2.5348906 h 0.03402 v -0.25042 h -0.03402 V 2.1701485 h 0.182371 v 0.1143221 h -0.03402 v 0.25042 h 0.03402 v 0.1143221 h -0.182371 z"
               id="path7750"
               style="fill:#ff0000;fill-opacity:1;stroke:none;stroke-width:0.02;stroke-miterlimit:4;stroke-dasharray:none;stroke-opacity:1" />
            <path
               d="m 18.798127,2.5348906 h 0.03402 v -0.25042 h -0.03402 V 2.1701485 h 0.182371 v 0.1143221 h -0.03402 v 0.25042 h 0.03402 v 0.1143221 h -0.182371 z"
               id="path7752"
               style="fill:#ff0000;fill-opacity:1;stroke:none;stroke-width:0.02;stroke-miterlimit:4;stroke-dasharray:none;stroke-opacity:1" />
          </g>
          <g
             id="g854"
             transform="matrix(0.01291825,0,0,0.01291825,4.9054009,0.55044961)"
             style="fill:#ff0000;fill-opacity:1;stroke:none;stroke-width:1.5482;stroke-miterlimit:4;stroke-dasharray:none;stroke-opacity:1">
            <path
               id="rect898"
               style="fill:#ff0000;fill-opacity:1;fill-rule:evenodd;stroke:none;stroke-width:5.85145;stroke-miterlimit:4;stroke-dasharray:none;stroke-opacity:1"
               d="M 302.36221,147.40178 V 504.56694 H 196.53544 v 68.03149 h 105.82677 v 119.05512 h 68.0315 V 572.59843 h 339.2126 V 504.56694 H 370.39371 V 147.40137 Z"
               transform="scale(0.26458333)"
               sodipodi:nodetypes="ccccccccccccc" />
            <g
               aria-label="A"
               id="text1602"
               style="font-weight:bold;font-size:56.7751px;line-height:1.25;font-family:'Century Gothic';-inkscape-font-specification:'Century Gothic Bold';text-align:end;text-anchor:end;fill:#ff0000;fill-opacity:1;stroke:none;stroke-width:1.5482;stroke-miterlimit:4;stroke-dasharray:none;stroke-opacity:1"
               transform="translate(-0.23437166)">
              <path
                 d="m 122.95287,87.441505 h 7.87311 l 15.69077,40.779385 h -8.06716 l -3.18806,-8.39984 H 118.6282 l -3.32666,8.39984 h -8.06717 z m 3.992,10.811664 -5.43356,13.999721 h 10.83939 z"
                 id="path827"
                 sodipodi:nodetypes="ccccccccccccc"
                 style="fill:#ff0000;fill-opacity:1;stroke:none;stroke-width:1.5482;stroke-miterlimit:4;stroke-dasharray:none;stroke-opacity:1" />
              <g
                 aria-label="Anathema"
                 id="text23973"
                 style="font-size:56.6921px;line-height:0.45;-inkscape-font-specification:'Century Gothic';letter-spacing:-2.64583px;fill:#ff0000;fill-opacity:1;stroke:none;stroke-width:1.5482;stroke-miterlimit:4;stroke-dasharray:none;stroke-opacity:1">
                <path
                   d="m 122.92989,87.595878 h 7.8616 l 15.66783,40.719762 h -8.05537 l -3.18339,-8.38755 h -16.60901 l -3.32181,8.38755 h -8.05537 z m 3.98616,10.795859 -5.42561,13.979253 h 10.82354 z"
                   style="text-align:start;text-anchor:start;fill:#ff0000;fill-opacity:1;stroke:none;stroke-width:1.5482;stroke-miterlimit:4;stroke-dasharray:none;stroke-opacity:1"
                   id="path7755" />
                <path
                   d="m 148.98997,98.197965 h 7.52942 v 3.072665 q 2.5744,-2.159169 4.65053,-2.98962 2.1038,-0.858132 4.29066,-0.858132 4.48443,0 7.61246,3.128032 2.62976,2.65744 2.62976,7.8616 v 19.90313 h -7.47405 v -13.20416 q 0,-5.39793 -0.49827,-7.16956 -0.47059,-1.77163 -1.68859,-2.68512 -1.19031,-0.94118 -2.96194,-0.94118 -2.29758,0 -3.95848,1.55017 -1.63322,1.5225 -2.2699,4.2353 -0.33218,1.41177 -0.33218,6.11765 v 12.0969 h -7.52942 z"
                   style="letter-spacing:-2.91042px;fill:#ff0000;fill-opacity:1;stroke:none;stroke-width:1.5482;stroke-miterlimit:4;stroke-dasharray:none;stroke-opacity:1"
                   id="path7757" />
                <path
                   d="m 202.35643,98.197965 h 7.52941 v 30.117675 h -7.52941 v -3.18339 q -2.21454,2.10381 -4.45676,3.04498 -2.21453,0.9135 -4.81661,0.9135 -5.84084,0 -10.10382,-4.51211 -4.26298,-4.5398 -4.26298,-11.26645 0,-6.97579 4.12457,-11.43254 4.12458,-4.456752 10.02078,-4.456752 2.7128,0 5.09343,1.024222 2.38062,1.024223 4.40139,3.07267 z m -7.94465,6.200695 q -3.51557,0 -5.84084,2.49136 -2.32526,2.46367 -2.32526,6.3391 0,3.90312 2.35295,6.42215 2.38062,2.51904 5.84083,2.51904 3.57094,0 5.92388,-2.46367 2.35295,-2.49135 2.35295,-6.5052 0,-3.9308 -2.35295,-6.36679 -2.35294,-2.43599 -5.95156,-2.43599 z"
                   style="letter-spacing:-2.91042px;fill:#ff0000;fill-opacity:1;stroke:none;stroke-width:1.5482;stroke-miterlimit:4;stroke-dasharray:none;stroke-opacity:1"
                   id="path7759" />
                <path
                   d="m 215.52907,87.097607 h 7.52942 v 11.100358 h 4.48443 v 6.505195 h -4.48443 v 23.61248 h -7.52942 v -23.61248 h -3.87544 v -6.505195 h 3.87544 z"
                   style="letter-spacing:-2.91042px;fill:#ff0000;fill-opacity:1;stroke:none;stroke-width:1.5482;stroke-miterlimit:4;stroke-dasharray:none;stroke-opacity:1"
                   id="path7761" />
                <path
                   d="m 228.72939,86.571655 h 7.50174 v 14.671295 q 2.21454,-1.910036 4.45675,-2.851213 2.24222,-0.968859 4.5398,-0.968859 4.48443,0 7.5571,3.100352 2.62976,2.68512 2.62976,7.88928 v 19.90313 h -7.44637 v -13.20416 q 0,-5.23184 -0.49827,-7.08652 -0.49827,-1.85467 -1.71627,-2.76816 -1.19031,-0.9135 -2.96194,-0.9135 -2.29758,0 -3.95848,1.52249 -1.63322,1.5225 -2.2699,4.15226 -0.33218,1.3564 -0.33218,6.20069 v 12.0969 h -7.50174 z"
                   style="letter-spacing:-2.91042px;fill:#ff0000;fill-opacity:1;stroke:none;stroke-width:1.5482;stroke-miterlimit:4;stroke-dasharray:none;stroke-opacity:1"
                   id="path7763" />
                <path
                   d="m 289.98513,115.44366 h -24.27684 q 0.52595,3.21107 2.79585,5.12111 2.29758,1.88236 5.84083,1.88236 4.2353,0 7.28029,-2.96195 l 6.36679,2.98963 q -2.38063,3.37716 -5.70243,5.01038 -3.32181,1.60554 -7.88928,1.60554 -7.08652,0 -11.54327,-4.45675 -4.45675,-4.48444 -4.45675,-11.21109 0,-6.89274 4.42907,-11.43253 4.45675,-4.567482 11.15572,-4.567482 7.11419,0 11.57095,4.567482 4.45675,4.53979 4.45675,12.01385 z m -7.58479,-5.95157 q -0.7474,-2.51903 -2.96194,-4.09689 -2.18685,-1.57785 -5.09343,-1.57785 -3.15571,0 -5.53634,1.77163 -1.49481,1.10726 -2.76816,3.90311 z"
                   style="letter-spacing:-2.91042px;fill:#ff0000;fill-opacity:1;stroke:none;stroke-width:1.5482;stroke-miterlimit:4;stroke-dasharray:none;stroke-opacity:1"
                   id="path7765" />
                <path
                   d="m 293.137,98.197965 h 7.58478 v 3.460215 q 1.93772,-2.131494 4.29067,-3.183398 2.38062,-1.051904 5.17647,-1.051904 2.82353,0 5.09343,1.384084 2.2699,1.384088 3.65399,4.041528 1.79931,-2.65744 4.40138,-4.041528 2.62977,-1.384084 5.73011,-1.384084 3.21108,0 5.64707,1.494811 2.43599,1.494811 3.48789,3.903121 1.07959,2.4083 1.07959,7.83392 v 17.66091 h -7.61247 v -15.28029 q 0,-5.12111 -1.27335,-6.92042 -1.27336,-1.82699 -3.82008,-1.82699 -1.93772,0 -3.48789,1.10726 -1.52249,1.10727 -2.2699,3.07267 -0.7474,1.93772 -0.7474,6.25606 v 13.59171 h -7.61247 v -14.58825 q 0,-4.04152 -0.609,-5.84083 -0.58131,-1.827 -1.77162,-2.71281 -1.19032,-0.88581 -2.8789,-0.88581 -1.88236,0 -3.43253,1.13495 -1.52249,1.10726 -2.29758,3.12803 -0.74741,2.02076 -0.74741,6.36679 v 13.39793 H 293.137 Z"
                   style="letter-spacing:-2.91042px;fill:#ff0000;fill-opacity:1;stroke:none;stroke-width:1.5482;stroke-miterlimit:4;stroke-dasharray:none;stroke-opacity:1"
                   id="path7767" />
                <path
                   d="m 365.82527,98.197965 h 7.52942 v 30.117675 h -7.52942 v -3.18339 q -2.21453,2.10381 -4.45675,3.04498 -2.21453,0.9135 -4.81661,0.9135 -5.84084,0 -10.10382,-4.51211 -4.26298,-4.5398 -4.26298,-11.26645 0,-6.97579 4.12457,-11.43254 4.12457,-4.456752 10.02077,-4.456752 2.71281,0 5.09344,1.024222 2.38062,1.024223 4.40138,3.07267 z m -7.94464,6.200695 q -3.51558,0 -5.84084,2.49136 -2.32526,2.46367 -2.32526,6.3391 0,3.90312 2.35294,6.42215 2.38063,2.51904 5.84084,2.51904 3.57094,0 5.92388,-2.46367 2.35295,-2.49135 2.35295,-6.5052 0,-3.9308 -2.35295,-6.36679 -2.35294,-2.43599 -5.95156,-2.43599 z"
                   style="letter-spacing:-2.91042px;fill:#ff0000;fill-opacity:1;stroke:none;stroke-width:1.5482;stroke-miterlimit:4;stroke-dasharray:none;stroke-opacity:1"
                   id="path7769" />
              </g>
            </g>
            <g
               aria-label="优良"
               id="text8782"
               style="font-size:21.8783px;line-height:1.25;font-family:'Dress Code';-inkscape-font-specification:'Dress Code';text-align:end;text-anchor:end;fill:#ff0000;fill-opacity:1;stroke:none;stroke-width:1.64313;stroke-miterlimit:4;stroke-dasharray:none;stroke-opacity:1"
               transform="matrix(0.94222362,0,0,0.94222362,4.0067091,6.670736)">
              <path
                 d="m 115.54031,62.793286 h 4.61495 l 0.34185,-4.87134 h 1.70924 q -0.0855,2.649325 -0.25638,4.87134 h 6.49512 v 1.62378 h -6.66605 q -0.51277,5.042264 -1.7947,7.990707 -1.28193,2.948443 -3.8458,5.25592 l -1.36739,-1.19647 q 2.30748,-1.965628 3.54668,-4.700416 1.2392,-2.734787 1.66651,-7.349741 h -4.44403 z m 8.97352,-4.358568 q 1.62378,1.025546 2.99117,2.307477 l -1.111,1.367394 q -1.45286,-1.538318 -2.99118,-2.563863 z m -2.13655,7.862514 h 1.70924 v 8.460749 q 0,0.427311 0.21365,0.555504 0.21366,0.128193 1.41013,0.128193 1.19647,0 1.53832,-0.512773 0.34185,-0.512772 0.42731,-2.392939 l 1.62378,0.683697 q -0.34185,2.649326 -0.98282,3.290291 -0.64096,0.640966 -2.60659,0.640966 -2.13655,0 -2.73479,-0.470041 -0.59823,-0.470042 -0.59823,-1.581049 z m -7.86252,-8.375286 1.70924,0.512772 q -0.94008,2.478402 -2.22201,4.871341 v 14.272172 h -1.70924 V 66.040846 q -1.02555,1.367394 -2.13656,2.563863 l -0.85462,-1.709242 q 3.67487,-4.273105 5.21319,-8.973521 z"
                 style="font-family:'WenQuanYi Micro Hei';-inkscape-font-specification:'WenQuanYi Micro Hei';fill:#ff0000;fill-opacity:1;stroke:none;stroke-width:1.64313;stroke-miterlimit:4;stroke-dasharray:none;stroke-opacity:1"
                 id="path2998" />
              <path
                 d="m 141.09348,57.836484 q 0.76916,1.111007 1.19647,2.478401 h 5.81142 v 8.717135 h -6.58058 q 0.85462,2.05109 2.64932,3.589408 2.90572,-1.111007 5.21319,-2.991173 l 1.19647,1.367393 q -2.39294,1.709243 -4.87134,2.734788 2.13655,1.367394 5.29865,2.136553 l -0.94008,1.794704 q -7.60613,-2.222015 -10.34092,-8.631673 h -3.93125 v 6.580582 q 3.1621,-0.598235 5.46957,-1.281931 l 0.34185,1.709242 q -2.90571,0.854621 -6.75151,1.62378 l -0.85462,-0.854621 V 60.314885 h 6.3242 q -0.42731,-1.025545 -1.02555,-1.880167 z m -5.29865,4.102181 v 1.965628 h 10.51184 v -1.965628 z m 0,3.503946 v 1.965629 h 10.51184 v -1.965629 z"
                 style="font-family:'WenQuanYi Micro Hei';-inkscape-font-specification:'WenQuanYi Micro Hei';fill:#ff0000;fill-opacity:1;stroke:none;stroke-width:1.64313;stroke-miterlimit:4;stroke-dasharray:none;stroke-opacity:1"
                 id="path3000" />
            </g>
            <g
               aria-label="arcade works"
               id="text49338"
               style="font-size:27.9198px;line-height:1.25;font-family:'Dress Code';-inkscape-font-specification:'Dress Code';text-align:end;text-anchor:end;fill:#ff0000;fill-opacity:1;stroke:none;stroke-width:1.5482;stroke-miterlimit:4;stroke-dasharray:none;stroke-opacity:1">
              <path
                 d="m 201.78621,135.65499 h 3.7081 v 14.83239 h -3.7081 v -1.56776 q -1.09062,1.03609 -2.19487,1.4996 -1.09062,0.44988 -2.37209,0.44988 -2.8765,0 -4.97594,-2.22214 -2.09944,-2.23576 -2.09944,-5.54851 0,-3.43544 2.03128,-5.63031 2.03127,-2.19487 4.93504,-2.19487 1.336,0 2.50842,0.50441 1.17241,0.50441 2.1676,1.51323 z m -3.91259,3.05373 q -1.73135,0 -2.8765,1.22694 -1.14515,1.21331 -1.14515,3.12189 0,1.92221 1.15878,3.16279 1.17241,1.24058 2.8765,1.24058 1.75862,0 2.9174,-1.21331 1.15878,-1.22695 1.15878,-3.20369 0,-1.93585 -1.15878,-3.13553 -1.15878,-1.19967 -2.93103,-1.19967 z"
                 style="font-weight:bold;font-family:'Century Gothic';-inkscape-font-specification:'Century Gothic Bold';fill:#ff0000;fill-opacity:1;stroke:none;stroke-width:1.5482;stroke-miterlimit:4;stroke-dasharray:none;stroke-opacity:1"
                 id="path7772" />
              <path
                 d="m 208.38444,135.65499 h 3.19006 v 1.86768 q 0.51804,-1.10425 1.3769,-1.67682 0.85886,-0.57258 1.88132,-0.57258 0.72253,0 1.51323,0.38172 l -1.15878,3.20369 q -0.65437,-0.32719 -1.07699,-0.32719 -0.85886,0 -1.4587,1.06335 -0.5862,1.06335 -0.5862,4.17161 l 0.0136,0.72254 v 5.99839 h -3.69447 z"
                 style="font-weight:bold;font-family:'Century Gothic';-inkscape-font-specification:'Century Gothic Bold';fill:#ff0000;fill-opacity:1;stroke:none;stroke-width:1.5482;stroke-miterlimit:4;stroke-dasharray:none;stroke-opacity:1"
                 id="path7774" />
              <path
                 d="m 232.70521,138.65418 -3.09463,1.70409 q -0.87249,-0.91339 -1.73135,-1.26784 -0.84523,-0.35445 -1.99038,-0.35445 -2.08581,0 -3.38091,1.25421 -1.28148,1.24058 -1.28148,3.19006 0,1.89494 1.24058,3.09462 1.24057,1.19968 3.25822,1.19968 2.49478,0 3.88532,-1.70409 l 2.93103,2.00401 q -2.38572,3.09463 -6.73456,3.09463 -3.91259,0 -6.13472,-2.31756 -2.2085,-2.31757 -2.2085,-5.42582 0,-2.15397 1.07699,-3.96712 1.07698,-1.81316 2.99919,-2.84924 1.93585,-1.03609 4.32157,-1.03609 2.2085,0 3.96712,0.88613 1.75862,0.87249 2.87651,2.49478 z"
                 style="font-weight:bold;font-family:'Century Gothic';-inkscape-font-specification:'Century Gothic Bold';fill:#ff0000;fill-opacity:1;stroke:none;stroke-width:1.5482;stroke-miterlimit:4;stroke-dasharray:none;stroke-opacity:1"
                 id="path7776" />
              <path
                 d="m 247.01956,135.65499 h 3.7081 v 14.83239 h -3.7081 v -1.56776 q -1.09062,1.03609 -2.19487,1.4996 -1.09062,0.44988 -2.37209,0.44988 -2.8765,0 -4.97594,-2.22214 -2.09944,-2.23576 -2.09944,-5.54851 0,-3.43544 2.03127,-5.63031 2.03128,-2.19487 4.93505,-2.19487 1.336,0 2.50842,0.50441 1.17241,0.50441 2.1676,1.51323 z m -3.91259,3.05373 q -1.73136,0 -2.8765,1.22694 -1.14515,1.21331 -1.14515,3.12189 0,1.92221 1.15878,3.16279 1.17241,1.24058 2.8765,1.24058 1.75862,0 2.9174,-1.21331 1.15878,-1.22695 1.15878,-3.20369 0,-1.93585 -1.15878,-3.13553 -1.15878,-1.19967 -2.93103,-1.19967 z"
                 style="font-weight:bold;font-family:'Century Gothic';-inkscape-font-specification:'Century Gothic Bold';fill:#ff0000;fill-opacity:1;stroke:none;stroke-width:1.5482;stroke-miterlimit:4;stroke-dasharray:none;stroke-opacity:1"
                 id="path7778" />
              <path
                 d="m 265.45099,129.92925 h 3.7081 v 20.55813 h -3.7081 v -1.56776 q -1.09062,1.03609 -2.19487,1.4996 -1.09062,0.44988 -2.37209,0.44988 -2.8765,0 -4.97594,-2.22214 -2.09944,-2.23576 -2.09944,-5.54851 0,-3.43544 2.03127,-5.63031 2.03128,-2.19487 4.93505,-2.19487 1.336,0 2.50842,0.50441 1.17241,0.50441 2.1676,1.51323 z m -3.91259,8.77947 q -1.73136,0 -2.8765,1.22694 -1.14515,1.21331 -1.14515,3.12189 0,1.92221 1.15878,3.16279 1.17241,1.24058 2.8765,1.24058 1.75862,0 2.9174,-1.21331 1.15878,-1.22695 1.15878,-3.20369 0,-1.93585 -1.15878,-3.13553 -1.15878,-1.19967 -2.93103,-1.19967 z"
                 style="font-weight:bold;font-family:'Century Gothic';-inkscape-font-specification:'Century Gothic Bold';fill:#ff0000;fill-opacity:1;stroke:none;stroke-width:1.5482;stroke-miterlimit:4;stroke-dasharray:none;stroke-opacity:1"
                 id="path7780" />
              <path
                 d="m 287.78137,144.14817 h -11.95589 q 0.25902,1.58139 1.37691,2.52205 1.13151,0.92703 2.8765,0.92703 2.0858,0 3.5854,-1.45871 l 3.13553,1.47234 q -1.17242,1.66319 -2.80834,2.46752 -1.63593,0.7907 -3.88533,0.7907 -3.48997,0 -5.68484,-2.19487 -2.19487,-2.2085 -2.19487,-5.52125 0,-3.39455 2.18124,-5.63031 2.19487,-2.2494 5.49398,-2.2494 3.50361,0 5.69848,2.2494 2.19486,2.23576 2.19486,5.9166 z m -3.73536,-2.93104 q -0.36808,-1.24057 -1.4587,-2.01764 -1.07699,-0.77706 -2.50842,-0.77706 -1.55413,0 -2.72654,0.87249 -0.73617,0.54531 -1.36328,1.92221 z"
                 style="font-weight:bold;font-family:'Century Gothic';-inkscape-font-specification:'Century Gothic Bold';fill:#ff0000;fill-opacity:1;stroke:none;stroke-width:1.5482;stroke-miterlimit:4;stroke-dasharray:none;stroke-opacity:1"
                 id="path7782" />
              <path
                 d="m 296.95619,135.65499 h 3.63994 l 2.98556,8.43865 3.21732,-8.43865 h 2.22213 l 3.14916,8.34322 2.98557,-8.34322 h 3.6672 l -5.41219,14.83239 h -2.35846 l -3.16279,-8.45228 -3.25822,8.45228 h -2.33119 z"
                 style="font-weight:bold;font-family:'Century Gothic';-inkscape-font-specification:'Century Gothic Bold';fill:#ff0000;fill-opacity:1;stroke:none;stroke-width:1.5482;stroke-miterlimit:4;stroke-dasharray:none;stroke-opacity:1"
                 id="path7784" />
              <path
                 d="m 327.90245,135.27327 q 2.09944,0 3.93985,1.04972 1.85405,1.04972 2.89014,2.84924 1.03609,1.79952 1.03609,3.88532 0,2.09944 -1.04972,3.92622 -1.03609,1.82679 -2.83561,2.86287 -1.79952,1.02246 -3.96712,1.02246 -3.19005,0 -5.45308,-2.26303 -2.2494,-2.27667 -2.2494,-5.52125 0,-3.47635 2.54932,-5.79391 2.23576,-2.01764 5.13953,-2.01764 z m 0.0545,3.50361 q -1.73135,0 -2.89013,1.21331 -1.14515,1.19968 -1.14515,3.08099 0,1.93585 1.13151,3.13553 1.14515,1.19968 2.89014,1.19968 1.74499,0 2.90377,-1.21331 1.15878,-1.21332 1.15878,-3.1219 0,-1.90858 -1.14515,-3.09462 -1.13152,-1.19968 -2.90377,-1.19968 z"
                 style="font-weight:bold;font-family:'Century Gothic';-inkscape-font-specification:'Century Gothic Bold';fill:#ff0000;fill-opacity:1;stroke:none;stroke-width:1.5482;stroke-miterlimit:4;stroke-dasharray:none;stroke-opacity:1"
                 id="path7786" />
              <path
                 d="m 337.93614,135.65499 h 3.19005 v 1.86768 q 0.51804,-1.10425 1.37691,-1.67682 0.85886,-0.57258 1.88131,-0.57258 0.72253,0 1.51323,0.38172 l -1.15878,3.20369 q -0.65437,-0.32719 -1.07698,-0.32719 -0.85886,0 -1.4587,1.06335 -0.58621,1.06335 -0.58621,4.17161 l 0.0136,0.72254 v 5.99839 h -3.69446 z"
                 style="font-weight:bold;font-family:'Century Gothic';-inkscape-font-specification:'Century Gothic Bold';fill:#ff0000;fill-opacity:1;stroke:none;stroke-width:1.5482;stroke-miterlimit:4;stroke-dasharray:none;stroke-opacity:1"
                 id="path7788" />
              <path
                 d="m 347.76532,129.92925 h 3.72173 v 11.84683 l 5.48036,-6.12109 h 4.66238 l -6.38011,7.11627 7.15718,7.71612 h -4.62149 l -6.29832,-6.82999 v 6.82999 h -3.72173 z"
                 style="font-weight:bold;font-family:'Century Gothic';-inkscape-font-specification:'Century Gothic Bold';fill:#ff0000;fill-opacity:1;stroke:none;stroke-width:1.5482;stroke-miterlimit:4;stroke-dasharray:none;stroke-opacity:1"
                 id="path7790" />
              <path
                 d="m 373.01311,137.72716 -2.30393,2.30393 q -1.40417,-1.39054 -2.54932,-1.39054 -0.6271,0 -0.98155,0.27266 -0.35445,0.25902 -0.35445,0.65437 0,0.29992 0.21812,0.55894 0.23176,0.24539 1.11788,0.68163 l 1.36327,0.68164 q 2.15397,1.06335 2.9583,2.1676 0.80433,1.10425 0.80433,2.59022 0,1.97674 -1.4587,3.29911 -1.44506,1.32238 -3.88532,1.32238 -3.24459,0 -5.18043,-2.53569 l 2.29029,-2.49478 q 0.65437,0.76343 1.52687,1.24057 0.88612,0.46351 1.56776,0.46351 0.73617,0 1.18605,-0.35445 0.44988,-0.35445 0.44988,-0.81796 0,-0.85886 -1.6223,-1.67682 l -1.25421,-0.62711 q -3.59903,-1.81315 -3.59903,-4.53969 0,-1.75862 1.34964,-2.9992 1.36327,-1.25421 3.47634,-1.25421 1.44507,0 2.71291,0.64074 1.28147,0.6271 2.1676,1.81315 z"
                 style="font-weight:bold;font-family:'Century Gothic';-inkscape-font-specification:'Century Gothic Bold';fill:#ff0000;fill-opacity:1;stroke:none;stroke-width:1.5482;stroke-miterlimit:4;stroke-dasharray:none;stroke-opacity:1"
                 id="path7792" />
            </g>
          </g>
        </g>
      </g>
    </g>
  </g>
</svg>
