<?xml version="1.0" encoding="UTF-8" standalone="no"?>
<!-- Created with Inkscape (http://www.inkscape.org/) -->

<svg
   width="254.2mm"
   height="39.887501mm"
   viewBox="0 0 254.2 39.887501"
   version="1.1"
   id="svg2421"
   inkscape:version="1.2.1 (9c6d41e410, 2022-07-14)"
   sodipodi:docname="ThinFrontPanel.svg"
   xmlns:inkscape="http://www.inkscape.org/namespaces/inkscape"
   xmlns:sodipodi="http://sodipodi.sourceforge.net/DTD/sodipodi-0.dtd"
   xmlns="http://www.w3.org/2000/svg"
   xmlns:svg="http://www.w3.org/2000/svg">
  <sodipodi:namedview
     id="namedview2423"
     pagecolor="#ffffff"
     bordercolor="#000000"
     borderopacity="0.25"
     inkscape:showpageshadow="2"
     inkscape:pageopacity="0.0"
     inkscape:pagecheckerboard="0"
     inkscape:deskcolor="#d1d1d1"
     inkscape:document-units="mm"
     showgrid="false"
     inkscape:zoom="3.6596241"
     inkscape:cx="491.03404"
     inkscape:cy="96.731247"
     inkscape:window-width="2560"
     inkscape:window-height="1369"
     inkscape:window-x="-8"
     inkscape:window-y="-8"
     inkscape:window-maximized="1"
     inkscape:current-layer="g6929" />
  <defs
     id="defs2418" />
  <g
     inkscape:label="Layer 1"
     inkscape:groupmode="layer"
     id="layer1"
     transform="translate(21.544989,-111.34933)">
    <g
       id="g6929"
       style="fill:none;stroke:#000000;stroke-width:0.02;stroke-dasharray:none;stroke-opacity:1"
       transform="matrix(10,0,0,10,-21.444989,111.44933)">
      <path
         d="m 10.475,1.299375 v 0.685 h -20.95 v -0.685 H -12.7 v -3.28375 h 25.4 v 3.28375 z"
         transform="matrix(1,0,0,-1,12.7,1.984375)"
         fill="rgb(0,0,0)"
         stroke-linecap="round"
         stroke-linejoin="round"
         id="path328"
         style="fill:none;stroke:#000000;stroke-width:0.02;stroke-dasharray:none;stroke-opacity:1" />
      <path
         d="m -6.8,0 a 1.2,1.2 0 1 1 2.4,0 1.2,1.2 0 1 1 -2.4,0 z"
         transform="matrix(1,0,0,-1,12.7,1.984375)"
         fill="rgb(255,255,255)"
         stroke="rgb(0,0,0)"
         stroke-width="0.0010cm"
         stroke-linecap="round"
         stroke-linejoin="round"
         id="path330"
         style="fill:none;stroke:#000000;stroke-width:0.02;stroke-dasharray:none;stroke-opacity:1" />
      <path
         d="m 13.894423,0.784375 a 0.155577,0.15557707 0 1 0 0.311154,0 0.155577,0.15557707 0 1 0 -0.311154,0 z"
         fill="rgb(255,255,255)"
         stroke="rgb(0,0,0)"
         stroke-width="0.0010cm"
         stroke-linecap="round"
         stroke-linejoin="round"
         id="path332"
         style="fill:none;stroke:#000000;stroke-width:0.0188464;stroke-dasharray:none;stroke-opacity:1" />
      <path
         d="m -3.8,0 a 1.2,1.2 0 1 1 2.4,0 1.2,1.2 0 1 1 -2.4,0 z"
         transform="matrix(1,0,0,-1,12.7,1.984375)"
         fill="rgb(255,255,255)"
         stroke="rgb(0,0,0)"
         stroke-width="0.0010cm"
         stroke-linecap="round"
         stroke-linejoin="round"
         id="path334"
         style="fill:none;stroke:#000000;stroke-width:0.02;stroke-dasharray:none;stroke-opacity:1" />
      <path
         d="M 1.1,0 A 1.2,1.2 0 1 1 3.5,0 1.2,1.2 0 1 1 1.1,0 Z"
         transform="matrix(1,0,0,-1,12.7,1.984375)"
         fill="rgb(255,255,255)"
         stroke="rgb(0,0,0)"
         stroke-width="0.0010cm"
         stroke-linecap="round"
         stroke-linejoin="round"
         id="path336"
         style="fill:none;stroke:#000000;stroke-width:0.02;stroke-dasharray:none;stroke-opacity:1" />
      <path
         d="m 15.794423,3.184375 a 0.155577,0.15557707 0 1 0 0.311154,0 0.155577,0.15557707 0 1 0 -0.311154,0 z"
         fill="rgb(255,255,255)"
         stroke="rgb(0,0,0)"
         stroke-width="0.0010cm"
         stroke-linecap="round"
         stroke-linejoin="round"
         id="path338"
         style="fill:none;stroke:#000000;stroke-width:0.0188464;stroke-dasharray:none;stroke-opacity:1" />
      <path
         d="m 2.4897778,2.8594 a 0.21022225,0.21022234 0 1 0 0.4204445,0 0.21022225,0.21022234 0 1 0 -0.4204445,0 z"
         fill="rgb(255,255,255)"
         stroke="rgb(0,0,0)"
         stroke-width="0.0010cm"
         stroke-linecap="round"
         stroke-linejoin="round"
         id="path340"
         style="fill:none;stroke:#000000;stroke-width:0.0195556;stroke-dasharray:none;stroke-opacity:1" />
      <path
         d="m 2.4897778,1.1094 a 0.21022225,0.21022234 0 1 0 0.4204445,0 0.21022225,0.21022234 0 1 0 -0.4204445,0 z"
         fill="rgb(255,255,255)"
         stroke="rgb(0,0,0)"
         stroke-width="0.0010cm"
         stroke-linecap="round"
         stroke-linejoin="round"
         id="path342"
         style="fill:none;stroke:#000000;stroke-width:0.0195556;stroke-dasharray:none;stroke-opacity:1" />
      <path
         d="m 22.489778,2.8594 a 0.21022222,0.2102223 0 1 0 0.420444,0 0.21022222,0.2102223 0 1 0 -0.420444,0 z"
         fill="rgb(255,255,255)"
         stroke="rgb(0,0,0)"
         stroke-width="0.0010cm"
         stroke-linecap="round"
         stroke-linejoin="round"
         id="path344"
         style="fill:none;stroke:#000000;stroke-width:0.0195556;stroke-dasharray:none;stroke-opacity:1" />
      <path
         d="m 22.489778,1.1094 a 0.21022222,0.2102223 0 1 0 0.420444,0 0.21022222,0.2102223 0 1 0 -0.420444,0 z"
         fill="rgb(255,255,255)"
         stroke="rgb(0,0,0)"
         stroke-width="0.0010cm"
         stroke-linecap="round"
         stroke-linejoin="round"
         id="path346"
         style="fill:none;stroke:#000000;stroke-width:0.0195556;stroke-dasharray:none;stroke-opacity:1" />
    </g>
  </g>
</svg>
