<?xml version="1.0" encoding="UTF-8" standalone="no"?>
<!-- Generator: Fusion 360, Shaper Origin Export Add-In, Version 1.6.3  -->

<svg
   shaper:fusionaddin="version:1.6.3"
   width="15.472916cm"
   height="5.3482962cm"
   version="1.1"
   x="0cm"
   y="0cm"
   viewBox="0 0 15.472916 5.3482962"
   enable-background="new 0 0 15.4 5.31005"
   xml:space="preserve"
   id="svg460"
   sodipodi:docname="ThickSidePanelSwitch.svg"
   inkscape:version="1.2.1 (9c6d41e410, 2022-07-14)"
   xmlns:inkscape="http://www.inkscape.org/namespaces/inkscape"
   xmlns:sodipodi="http://sodipodi.sourceforge.net/DTD/sodipodi-0.dtd"
   xmlns="http://www.w3.org/2000/svg"
   xmlns:svg="http://www.w3.org/2000/svg"
   xmlns:shaper="http://www.shapertools.com/namespaces/shaper"><defs
     id="defs464" /><sodipodi:namedview
     id="namedview462"
     pagecolor="#ffffff"
     bordercolor="#000000"
     borderopacity="0.25"
     inkscape:showpageshadow="2"
     inkscape:pageopacity="0.0"
     inkscape:pagecheckerboard="0"
     inkscape:deskcolor="#d1d1d1"
     inkscape:document-units="cm"
     showgrid="false"
     inkscape:zoom="2.0788691"
     inkscape:cx="68.306369"
     inkscape:cy="79.370077"
     inkscape:window-width="2560"
     inkscape:window-height="1369"
     inkscape:window-x="-8"
     inkscape:window-y="-8"
     inkscape:window-maximized="1"
     inkscape:current-layer="g2703" /><g
     id="g2703"
     transform="translate(7.889186,2.6232391)"><path
       d="M 5.3410864,-2.6132391 H -5.646541 v 0.6371819 H -7.879186 V 2.7150572 H 7.5737314 v -4.6911144 h -2.232645 z"
       fill="#000000"
       stroke-linecap="round"
       stroke-linejoin="round"
       id="path2-90"
       style="fill:none;fill-opacity:1;stroke:#000000;stroke-width:0.02;stroke-dasharray:none;stroke-opacity:1" /><path
       d="m -4.9596481,0.9038552 a 0.21026006,0.20999504 0 1 0 -0.4205198,0 0.21026006,0.20999504 0 1 0 0.4205198,0 z"
       fill="#ffffff"
       stroke="rgb(0,0,0)"
       stroke-width="0.001cm"
       stroke-linecap="round"
       stroke-linejoin="round"
       id="path4-9"
       style="fill:none;fill-opacity:1;stroke:#000000;stroke-width:0.0194798;stroke-dasharray:none;stroke-opacity:1" /><path
       d="m -4.9596481,-0.8521588 a 0.21026006,0.20999504 0 1 0 -0.4205198,0 0.21026006,0.20999504 0 1 0 0.4205198,0 z"
       fill="#ffffff"
       stroke="rgb(0,0,0)"
       stroke-width="0.001cm"
       stroke-linecap="round"
       stroke-linejoin="round"
       id="path6-53"
       style="fill:none;fill-opacity:1;stroke:#000000;stroke-width:0.0194798;stroke-dasharray:none;stroke-opacity:1" /><path
       d="m 5.0747191,-0.8521588 a 0.21026594,0.2097284 0 1 0 -0.4205304,0 0.21026594,0.2097284 0 1 0 0.4205304,0 z"
       fill="#ffffff"
       stroke="rgb(0,0,0)"
       stroke-width="0.001cm"
       stroke-linecap="round"
       stroke-linejoin="round"
       id="path8-1"
       style="fill:none;fill-opacity:1;stroke:#000000;stroke-width:0.0194677;stroke-dasharray:none;stroke-opacity:1" /><path
       d="m 5.0747191,0.9038552 a 0.21026594,0.2097284 0 1 0 -0.4205304,0 0.21026594,0.2097284 0 1 0 0.4205304,0 z"
       fill="#ffffff"
       stroke="rgb(0,0,0)"
       stroke-width="0.001cm"
       stroke-linecap="round"
       stroke-linejoin="round"
       id="path10-2"
       style="fill:none;fill-opacity:1;stroke:#000000;stroke-width:0.0194677;stroke-dasharray:none;stroke-opacity:1" /><path
       id="path16-87"
       style="fill:none;fill-opacity:1;stroke:#000000;stroke-width:0.02;stroke-dasharray:none;stroke-opacity:1"
       d="m -0.1648148,-0.965984 a 0.99176484,0.99145443 0 0 0 -0.9735323,0.8818066 h -0.109399 v 0.2199866 h 0.109399 A 0.99176484,0.99145443 0 0 0 0.8390514,0.0258418 0.99176484,0.99145443 0 0 0 -0.1648148,-0.965984 Z" /></g></svg>
