<?xml version="1.0" encoding="UTF-8" standalone="no"?>
<!-- Generator: Fusion 360, Shaper Origin Export Add-In, Version 1.6.3  -->

<svg
   shaper:fusionaddin="version:1.6.3"
   width="15.472916cm"
   height="5.3482962cm"
   version="1.1"
   x="0cm"
   y="0cm"
   viewBox="0 0 15.472916 5.3482962"
   enable-background="new 0 0 15.4 5.31005"
   xml:space="preserve"
   id="svg460"
   sodipodi:docname="ThickSidePanelNeutrik.svg"
   inkscape:version="1.2.1 (9c6d41e410, 2022-07-14)"
   xmlns:inkscape="http://www.inkscape.org/namespaces/inkscape"
   xmlns:sodipodi="http://sodipodi.sourceforge.net/DTD/sodipodi-0.dtd"
   xmlns="http://www.w3.org/2000/svg"
   xmlns:svg="http://www.w3.org/2000/svg"
   xmlns:shaper="http://www.shapertools.com/namespaces/shaper"><defs
     id="defs464" /><sodipodi:namedview
     id="namedview462"
     pagecolor="#ffffff"
     bordercolor="#000000"
     borderopacity="0.25"
     inkscape:showpageshadow="2"
     inkscape:pageopacity="0.0"
     inkscape:pagecheckerboard="0"
     inkscape:deskcolor="#d1d1d1"
     inkscape:document-units="cm"
     showgrid="false"
     inkscape:zoom="2.0788691"
     inkscape:cx="155.85397"
     inkscape:cy="79.370077"
     inkscape:window-width="2560"
     inkscape:window-height="1369"
     inkscape:window-x="-8"
     inkscape:window-y="-8"
     inkscape:window-maximized="1"
     inkscape:current-layer="g1669" /><g
     id="g1669"
     transform="translate(0.01100356,-0.02403371)"><path
       d="M 13.219267,0.03403371 H 2.2316409 v 0.637182 H -0.00100356 V 5.3623297 H 15.451912 V 0.67121571 h -2.232645 z"
       fill="#000000"
       stroke-linecap="round"
       stroke-linejoin="round"
       id="path2-9"
       style="fill:none;fill-opacity:1;stroke:#000000;stroke-width:0.02;stroke-dasharray:none;stroke-opacity:1" /><path
       d="m 2.9185338,3.5511277 a 0.21026006,0.20999504 0 1 0 -0.4205198,0 0.21026006,0.20999504 0 1 0 0.4205198,0 z"
       fill="#ffffff"
       stroke="rgb(0,0,0)"
       stroke-width="0.001cm"
       stroke-linecap="round"
       stroke-linejoin="round"
       id="path4-6"
       style="fill:none;fill-opacity:1;stroke:#000000;stroke-width:0.0194798;stroke-dasharray:none;stroke-opacity:1" /><path
       d="m 2.9185338,1.7951137 a 0.21026006,0.20999504 0 1 0 -0.4205198,0 0.21026006,0.20999504 0 1 0 0.4205198,0 z"
       fill="#ffffff"
       stroke="rgb(0,0,0)"
       stroke-width="0.001cm"
       stroke-linecap="round"
       stroke-linejoin="round"
       id="path6-5"
       style="fill:none;fill-opacity:1;stroke:#000000;stroke-width:0.0194798;stroke-dasharray:none;stroke-opacity:1" /><path
       d="m 12.9529,1.7951137 a 0.21026594,0.2097284 0 1 0 -0.420531,0 0.21026594,0.2097284 0 1 0 0.420531,0 z"
       fill="#ffffff"
       stroke="rgb(0,0,0)"
       stroke-width="0.001cm"
       stroke-linecap="round"
       stroke-linejoin="round"
       id="path8-4"
       style="fill:none;fill-opacity:1;stroke:#000000;stroke-width:0.0194677;stroke-dasharray:none;stroke-opacity:1" /><path
       d="m 12.9529,3.5511277 a 0.21026594,0.2097284 0 1 0 -0.420531,0 0.21026594,0.2097284 0 1 0 0.420531,0 z"
       fill="#ffffff"
       stroke="rgb(0,0,0)"
       stroke-width="0.001cm"
       stroke-linecap="round"
       stroke-linejoin="round"
       id="path10-8"
       style="fill:none;fill-opacity:1;stroke:#000000;stroke-width:0.0194677;stroke-dasharray:none;stroke-opacity:1" /><path
       d="m 6.9277977,1.4689727 a 0.1556073,0.15560737 0 1 0 -0.3112146,0 0.1556073,0.15560737 0 1 0 0.3112146,0 z"
       fill="#ffffff"
       stroke="rgb(0,0,0)"
       stroke-width="0.001cm"
       stroke-linecap="round"
       stroke-linejoin="round"
       id="path12-5"
       style="fill:none;fill-opacity:1;stroke:#000000;stroke-width:0.0187855;stroke-dasharray:none;stroke-opacity:1" /><path
       d="m 8.8343257,3.8772187 a 0.1556073,0.15560736 0 1 0 -0.3112146,0 0.1556073,0.15560736 0 1 0 0.3112146,0 z"
       fill="#ffffff"
       stroke="rgb(0,0,0)"
       stroke-width="0.001cm"
       stroke-linecap="round"
       stroke-linejoin="round"
       id="path14-4"
       style="fill:none;fill-opacity:1;stroke:#000000;stroke-width:0.0187855;stroke-dasharray:none;stroke-opacity:1" /><path
       d="m 8.9295779,2.6730957 a 1.2041235,1.2041235 0 1 0 -2.408246,0 1.2041235,1.2041235 0 1 0 2.408246,0 z"
       fill="#ffffff"
       stroke="rgb(0,0,0)"
       stroke-width="0.001cm"
       stroke-linecap="round"
       stroke-linejoin="round"
       id="path16-8"
       style="fill:none;fill-opacity:1;stroke:#000000;stroke-width:0.02;stroke-dasharray:none;stroke-opacity:1" /></g></svg>
