<?xml version="1.0" encoding="UTF-8" standalone="no"?>
<!-- Generator: Fusion 360, Shaper Origin Export Add-In, Version 1.6.3  -->

<svg
   shaper:fusionaddin="version:1.6.3"
   width="15.4cm"
   height="5.31005cm"
   version="1.1"
   x="0cm"
   y="0cm"
   viewBox="0 0 15.4 5.31005"
   enable-background="new 0 0 15.4 5.31005"
   xml:space="preserve"
   id="svg460"
   sodipodi:docname="ThickSidePanelButton.svg"
   inkscape:version="1.2.1 (9c6d41e410, 2022-07-14)"
   xmlns:inkscape="http://www.inkscape.org/namespaces/inkscape"
   xmlns:sodipodi="http://sodipodi.sourceforge.net/DTD/sodipodi-0.dtd"
   xmlns="http://www.w3.org/2000/svg"
   xmlns:svg="http://www.w3.org/2000/svg"
   xmlns:shaper="http://www.shapertools.com/namespaces/shaper"><defs
     id="defs464" /><sodipodi:namedview
     id="namedview462"
     pagecolor="#ffffff"
     bordercolor="#000000"
     borderopacity="0.25"
     inkscape:showpageshadow="2"
     inkscape:pageopacity="0.0"
     inkscape:pagecheckerboard="0"
     inkscape:deskcolor="#d1d1d1"
     inkscape:document-units="cm"
     showgrid="false"
     inkscape:zoom="2.0788691"
     inkscape:cx="124.58697"
     inkscape:cy="101.01646"
     inkscape:window-width="2560"
     inkscape:window-height="1369"
     inkscape:window-x="-8"
     inkscape:window-y="-8"
     inkscape:window-maximized="1"
     inkscape:current-layer="svg460" /><path
     d="M13.175,5.31005 L2.225,5.31005 2.225,4.67505 -0,4.67505 0,0 15.4,0 15.4,4.67505 13.175,4.67505 13.175,5.31005z"
     transform="matrix(1,0,0,-1,0,5.31005)"
     fill="rgb(0,0,0)"
     shaper:cutDepth="0"
     stroke-linecap="round"
     stroke-linejoin="round"
     id="path448"
     style="stroke:#000000;stroke-opacity:1;fill:none;stroke-width:0.02;stroke-dasharray:none" /><path
     d="m 2.489775,3.50505 a 0.21022513,0.21009421 0 1 0 0.4204502,0 0.21022513,0.21009421 0 1 0 -0.4204502,0 z"
     fill="rgb(255,255,255)"
     stroke="rgb(0,0,0)"
     stroke-width="0.0010cm"
     stroke-linecap="round"
     stroke-linejoin="round"
     shaper:cutDepth="0"
     id="path450"
     style="fill:none;stroke:#000000;stroke-width:0.0195497;stroke-dasharray:none;stroke-opacity:1" /><path
     d="m 2.489775,1.75505 a 0.21022513,0.21009421 0 1 0 0.4204502,0 0.21022513,0.21009421 0 1 0 -0.4204502,0 z"
     fill="rgb(255,255,255)"
     stroke="rgb(0,0,0)"
     stroke-width="0.0010cm"
     stroke-linecap="round"
     stroke-linejoin="round"
     shaper:cutDepth="0"
     id="path452"
     style="fill:none;stroke:#000000;stroke-width:0.0195497;stroke-dasharray:none;stroke-opacity:1" /><path
     d="m 12.489777,1.75505 a 0.2102225,0.21022259 0 1 0 0.420445,0 0.2102225,0.21022259 0 1 0 -0.420445,0 z"
     fill="rgb(255,255,255)"
     stroke="rgb(0,0,0)"
     stroke-width="0.0010cm"
     stroke-linecap="round"
     stroke-linejoin="round"
     shaper:cutDepth="0"
     id="path454"
     style="fill:none;stroke:#000000;stroke-width:0.0195555;stroke-dasharray:none;stroke-opacity:1" /><path
     d="m 12.489777,3.50505 a 0.2102225,0.21022258 0 1 0 0.420445,0 0.2102225,0.21022258 0 1 0 -0.420445,0 z"
     fill="rgb(255,255,255)"
     stroke="rgb(0,0,0)"
     stroke-width="0.0010cm"
     stroke-linecap="round"
     stroke-linejoin="round"
     shaper:cutDepth="0"
     id="path456"
     style="fill:none;stroke:#000000;stroke-width:0.0195555;stroke-dasharray:none;stroke-opacity:1" /><path
     d="M6.5,2.680025 a1.2,1.2 0 1,1 2.4,0 a1.2,1.2 0 1,1 -2.4,0z"
     transform="matrix(1,0,0,-1,0,5.31005)"
     fill="rgb(255,255,255)"
     stroke="rgb(0,0,0)"
     stroke-width="0.0010cm"
     stroke-linecap="round"
     stroke-linejoin="round"
     shaper:cutDepth="0"
     id="path458"
     style="stroke:#000000;stroke-opacity:1;fill:none;stroke-width:0.02;stroke-dasharray:none" /></svg>
